<mxfile host="app.diagrams.net" modified="2023-10-24T21:54:56.905Z" agent="Mozilla/5.0 (Windows NT 10.0; Win64; x64) AppleWebKit/537.36 (KHTML, like Gecko) Chrome/118.0.0.0 Safari/537.36" etag="CbQncFv4YicvE-ZQxQdX" version="22.0.6" type="github">
  <diagram name="Página-1" id="OuaDPxV6vWgWIFLeQTGV">
    <mxGraphModel dx="12851" dy="5079" grid="0" gridSize="10" guides="1" tooltips="1" connect="1" arrows="1" fold="1" page="1" pageScale="1" pageWidth="827" pageHeight="1169" math="0" shadow="0">
      <root>
        <mxCell id="0" />
        <mxCell id="1" parent="0" />
        <mxCell id="aUn-TZOy5CU89tunpi1s-1" value="&amp;nbsp;Gestor /&amp;nbsp;" style="shape=umlActor;verticalLabelPosition=bottom;verticalAlign=top;html=1;outlineConnect=0;" parent="1" vertex="1">
          <mxGeometry x="852" y="-238" width="30" height="60" as="geometry" />
        </mxCell>
        <mxCell id="aUn-TZOy5CU89tunpi1s-5" value="Efetuar CRUD de alunos" style="ellipse;whiteSpace=wrap;html=1;" parent="1" vertex="1">
          <mxGeometry x="933" y="-146" width="140" height="70" as="geometry" />
        </mxCell>
        <mxCell id="aUn-TZOy5CU89tunpi1s-8" value="" style="endArrow=none;html=1;rounded=0;entryX=0.021;entryY=0.657;entryDx=0;entryDy=0;entryPerimeter=0;" parent="1" source="aUn-TZOy5CU89tunpi1s-1" target="aUn-TZOy5CU89tunpi1s-5" edge="1">
          <mxGeometry width="50" height="50" relative="1" as="geometry">
            <mxPoint x="822" y="-33" as="sourcePoint" />
            <mxPoint x="872" y="-83" as="targetPoint" />
          </mxGeometry>
        </mxCell>
        <mxCell id="aUn-TZOy5CU89tunpi1s-9" value="Efetuar CRUD de instrumentos" style="ellipse;whiteSpace=wrap;html=1;" parent="1" vertex="1">
          <mxGeometry x="927" y="-69" width="140" height="70" as="geometry" />
        </mxCell>
        <mxCell id="aUn-TZOy5CU89tunpi1s-10" value="" style="endArrow=none;html=1;rounded=0;entryX=0.064;entryY=0.286;entryDx=0;entryDy=0;entryPerimeter=0;" parent="1" source="aUn-TZOy5CU89tunpi1s-1" target="aUn-TZOy5CU89tunpi1s-9" edge="1">
          <mxGeometry width="50" height="50" relative="1" as="geometry">
            <mxPoint x="822" y="-33" as="sourcePoint" />
            <mxPoint x="872" y="-83" as="targetPoint" />
          </mxGeometry>
        </mxCell>
        <mxCell id="aUn-TZOy5CU89tunpi1s-11" value="Gerir empréstimos" style="ellipse;whiteSpace=wrap;html=1;" parent="1" vertex="1">
          <mxGeometry x="707" y="-128" width="140" height="70" as="geometry" />
        </mxCell>
        <mxCell id="aUn-TZOy5CU89tunpi1s-13" value="" style="endArrow=none;html=1;rounded=0;" parent="1" source="aUn-TZOy5CU89tunpi1s-11" target="aUn-TZOy5CU89tunpi1s-1" edge="1">
          <mxGeometry width="50" height="50" relative="1" as="geometry">
            <mxPoint x="822" y="-33" as="sourcePoint" />
            <mxPoint x="872" y="-83" as="targetPoint" />
          </mxGeometry>
        </mxCell>
        <mxCell id="aUn-TZOy5CU89tunpi1s-14" value="Gerir contribuições" style="ellipse;whiteSpace=wrap;html=1;" parent="1" vertex="1">
          <mxGeometry x="627" y="-211" width="140" height="70" as="geometry" />
        </mxCell>
        <mxCell id="aUn-TZOy5CU89tunpi1s-15" value="" style="endArrow=none;html=1;rounded=0;entryX=0.5;entryY=0.5;entryDx=0;entryDy=0;entryPerimeter=0;exitX=0.571;exitY=0.029;exitDx=0;exitDy=0;exitPerimeter=0;" parent="1" source="aUn-TZOy5CU89tunpi1s-14" target="aUn-TZOy5CU89tunpi1s-1" edge="1">
          <mxGeometry width="50" height="50" relative="1" as="geometry">
            <mxPoint x="822" y="-33" as="sourcePoint" />
            <mxPoint x="872" y="-83" as="targetPoint" />
          </mxGeometry>
        </mxCell>
        <mxCell id="aUn-TZOy5CU89tunpi1s-16" value="Listar Dados de alunos" style="ellipse;whiteSpace=wrap;html=1;" parent="1" vertex="1">
          <mxGeometry x="992" y="-223" width="140" height="70" as="geometry" />
        </mxCell>
        <mxCell id="aUn-TZOy5CU89tunpi1s-17" value="" style="endArrow=none;html=1;rounded=0;" parent="1" source="aUn-TZOy5CU89tunpi1s-1" target="aUn-TZOy5CU89tunpi1s-16" edge="1">
          <mxGeometry width="50" height="50" relative="1" as="geometry">
            <mxPoint x="822" y="-33" as="sourcePoint" />
            <mxPoint x="872" y="-83" as="targetPoint" />
          </mxGeometry>
        </mxCell>
        <mxCell id="aUn-TZOy5CU89tunpi1s-18" value="Efetuar CRUD de classes de aula" style="ellipse;whiteSpace=wrap;html=1;" parent="1" vertex="1">
          <mxGeometry x="785" y="-53" width="140" height="70" as="geometry" />
        </mxCell>
        <mxCell id="aUn-TZOy5CU89tunpi1s-19" value="" style="endArrow=none;html=1;rounded=0;exitX=0.5;exitY=0.5;exitDx=0;exitDy=0;exitPerimeter=0;" parent="1" source="aUn-TZOy5CU89tunpi1s-1" target="aUn-TZOy5CU89tunpi1s-18" edge="1">
          <mxGeometry width="50" height="50" relative="1" as="geometry">
            <mxPoint x="1072" y="147" as="sourcePoint" />
            <mxPoint x="1122" y="97" as="targetPoint" />
          </mxGeometry>
        </mxCell>
        <mxCell id="aUn-TZOy5CU89tunpi1s-20" value="Visualizar Dashboard com Dados Gerais" style="ellipse;whiteSpace=wrap;html=1;" parent="1" vertex="1">
          <mxGeometry x="972" y="-303" width="140" height="70" as="geometry" />
        </mxCell>
        <mxCell id="aUn-TZOy5CU89tunpi1s-21" value="" style="endArrow=none;html=1;rounded=0;" parent="1" source="aUn-TZOy5CU89tunpi1s-1" target="aUn-TZOy5CU89tunpi1s-20" edge="1">
          <mxGeometry width="50" height="50" relative="1" as="geometry">
            <mxPoint x="862" y="-303" as="sourcePoint" />
            <mxPoint x="912" y="-353" as="targetPoint" />
          </mxGeometry>
        </mxCell>
        <mxCell id="aUn-TZOy5CU89tunpi1s-22" value="&lt;strike&gt;Gerar Relatórios com Dados Gerais&lt;/strike&gt;" style="ellipse;whiteSpace=wrap;html=1;" parent="1" vertex="1">
          <mxGeometry x="922" y="-383" width="140" height="70" as="geometry" />
        </mxCell>
        <mxCell id="aUn-TZOy5CU89tunpi1s-23" value="" style="endArrow=none;html=1;rounded=0;" parent="1" source="aUn-TZOy5CU89tunpi1s-1" target="aUn-TZOy5CU89tunpi1s-22" edge="1">
          <mxGeometry width="50" height="50" relative="1" as="geometry">
            <mxPoint x="842" y="-333" as="sourcePoint" />
            <mxPoint x="892" y="-383" as="targetPoint" />
          </mxGeometry>
        </mxCell>
        <mxCell id="aUn-TZOy5CU89tunpi1s-24" value="Listar agendas de aulas e lotação" style="ellipse;whiteSpace=wrap;html=1;" parent="1" vertex="1">
          <mxGeometry x="679" y="-293" width="140" height="70" as="geometry" />
        </mxCell>
        <mxCell id="aUn-TZOy5CU89tunpi1s-25" value="" style="endArrow=none;html=1;rounded=0;" parent="1" source="aUn-TZOy5CU89tunpi1s-1" target="aUn-TZOy5CU89tunpi1s-24" edge="1">
          <mxGeometry width="50" height="50" relative="1" as="geometry">
            <mxPoint x="742.125" y="-303" as="sourcePoint" />
            <mxPoint x="752" y="-373" as="targetPoint" />
          </mxGeometry>
        </mxCell>
        <mxCell id="aUn-TZOy5CU89tunpi1s-26" value="Listar disponibilidade de instrumentos" style="ellipse;whiteSpace=wrap;html=1;" parent="1" vertex="1">
          <mxGeometry x="765" y="-379" width="140" height="70" as="geometry" />
        </mxCell>
        <mxCell id="aUn-TZOy5CU89tunpi1s-27" value="" style="endArrow=none;html=1;rounded=0;exitX=0.5;exitY=0.5;exitDx=0;exitDy=0;exitPerimeter=0;" parent="1" source="aUn-TZOy5CU89tunpi1s-1" target="aUn-TZOy5CU89tunpi1s-26" edge="1">
          <mxGeometry width="50" height="50" relative="1" as="geometry">
            <mxPoint x="762" y="-289.37254901960785" as="sourcePoint" />
            <mxPoint x="942" y="-353" as="targetPoint" />
          </mxGeometry>
        </mxCell>
        <mxCell id="aUn-TZOy5CU89tunpi1s-32" value="Aluno" style="swimlane;fontStyle=1;align=center;verticalAlign=top;childLayout=stackLayout;horizontal=1;startSize=26;horizontalStack=0;resizeParent=1;resizeParentMax=0;resizeLast=0;collapsible=1;marginBottom=0;whiteSpace=wrap;html=1;" parent="1" vertex="1">
          <mxGeometry x="173" y="737" width="194" height="286" as="geometry" />
        </mxCell>
        <mxCell id="aUn-TZOy5CU89tunpi1s-33" value="&lt;br&gt;- dataAdmissao: Date&lt;br&gt;- dataDesligamento: Date&lt;br&gt;- nomeResponsavel: string&lt;br&gt;- telefoneTutor: string&lt;br&gt;- emailTutor: string&lt;br&gt;- anotacoesAluno: string" style="text;strokeColor=none;fillColor=none;align=left;verticalAlign=top;spacingLeft=4;spacingRight=4;overflow=hidden;rotatable=0;points=[[0,0.5],[1,0.5]];portConstraint=eastwest;whiteSpace=wrap;html=1;" parent="aUn-TZOy5CU89tunpi1s-32" vertex="1">
          <mxGeometry y="26" width="194" height="127" as="geometry" />
        </mxCell>
        <mxCell id="aUn-TZOy5CU89tunpi1s-34" value="" style="line;strokeWidth=1;fillColor=none;align=left;verticalAlign=middle;spacingTop=-1;spacingLeft=3;spacingRight=3;rotatable=0;labelPosition=right;points=[];portConstraint=eastwest;strokeColor=inherit;" parent="aUn-TZOy5CU89tunpi1s-32" vertex="1">
          <mxGeometry y="153" width="194" height="72" as="geometry" />
        </mxCell>
        <mxCell id="aUn-TZOy5CU89tunpi1s-35" value="+ listarAlunos() : Aluno[ ]&lt;br&gt;+ getNumeroAlunos(): int" style="text;strokeColor=none;fillColor=none;align=left;verticalAlign=top;spacingLeft=4;spacingRight=4;overflow=hidden;rotatable=0;points=[[0,0.5],[1,0.5]];portConstraint=eastwest;whiteSpace=wrap;html=1;" parent="aUn-TZOy5CU89tunpi1s-32" vertex="1">
          <mxGeometry y="225" width="194" height="61" as="geometry" />
        </mxCell>
        <mxCell id="aUn-TZOy5CU89tunpi1s-40" value="Endereço" style="swimlane;fontStyle=1;align=center;verticalAlign=top;childLayout=stackLayout;horizontal=1;startSize=26;horizontalStack=0;resizeParent=1;resizeParentMax=0;resizeLast=0;collapsible=1;marginBottom=0;whiteSpace=wrap;html=1;" parent="1" vertex="1">
          <mxGeometry x="-74" y="306" width="242" height="164" as="geometry" />
        </mxCell>
        <mxCell id="aUn-TZOy5CU89tunpi1s-41" value="- rua: string&lt;br&gt;- numero: string&lt;br&gt;- complemento: string&lt;br&gt;- bairro: string&lt;br&gt;- cidade: string&lt;br&gt;-cep: string" style="text;strokeColor=none;fillColor=none;align=left;verticalAlign=top;spacingLeft=4;spacingRight=4;overflow=hidden;rotatable=0;points=[[0,0.5],[1,0.5]];portConstraint=eastwest;whiteSpace=wrap;html=1;" parent="aUn-TZOy5CU89tunpi1s-40" vertex="1">
          <mxGeometry y="26" width="242" height="104" as="geometry" />
        </mxCell>
        <mxCell id="aUn-TZOy5CU89tunpi1s-42" value="" style="line;strokeWidth=1;fillColor=none;align=left;verticalAlign=middle;spacingTop=-1;spacingLeft=3;spacingRight=3;rotatable=0;labelPosition=right;points=[];portConstraint=eastwest;strokeColor=inherit;" parent="aUn-TZOy5CU89tunpi1s-40" vertex="1">
          <mxGeometry y="130" width="242" height="8" as="geometry" />
        </mxCell>
        <mxCell id="aUn-TZOy5CU89tunpi1s-43" value="+ getEndereçoCompleto(void): string" style="text;strokeColor=none;fillColor=none;align=left;verticalAlign=top;spacingLeft=4;spacingRight=4;overflow=hidden;rotatable=0;points=[[0,0.5],[1,0.5]];portConstraint=eastwest;whiteSpace=wrap;html=1;" parent="aUn-TZOy5CU89tunpi1s-40" vertex="1">
          <mxGeometry y="138" width="242" height="26" as="geometry" />
        </mxCell>
        <mxCell id="aUn-TZOy5CU89tunpi1s-44" value="Curso" style="swimlane;fontStyle=1;align=center;verticalAlign=top;childLayout=stackLayout;horizontal=1;startSize=26;horizontalStack=0;resizeParent=1;resizeParentMax=0;resizeLast=0;collapsible=1;marginBottom=0;whiteSpace=wrap;html=1;" parent="1" vertex="1">
          <mxGeometry x="671" y="1119" width="171" height="167" as="geometry" />
        </mxCell>
        <mxCell id="aUn-TZOy5CU89tunpi1s-45" value="- idCurso: string&lt;br&gt;- nomeCurso: string&lt;br&gt;- instrumentosCurso: string[ ]&lt;br&gt;-&amp;nbsp;" style="text;strokeColor=none;fillColor=none;align=left;verticalAlign=top;spacingLeft=4;spacingRight=4;overflow=hidden;rotatable=0;points=[[0,0.5],[1,0.5]];portConstraint=eastwest;whiteSpace=wrap;html=1;" parent="aUn-TZOy5CU89tunpi1s-44" vertex="1">
          <mxGeometry y="26" width="171" height="107" as="geometry" />
        </mxCell>
        <mxCell id="aUn-TZOy5CU89tunpi1s-46" value="" style="line;strokeWidth=1;fillColor=none;align=left;verticalAlign=middle;spacingTop=-1;spacingLeft=3;spacingRight=3;rotatable=0;labelPosition=right;points=[];portConstraint=eastwest;strokeColor=inherit;" parent="aUn-TZOy5CU89tunpi1s-44" vertex="1">
          <mxGeometry y="133" width="171" height="8" as="geometry" />
        </mxCell>
        <mxCell id="aUn-TZOy5CU89tunpi1s-47" value="+ listarCursos(): string[ ]" style="text;strokeColor=none;fillColor=none;align=left;verticalAlign=top;spacingLeft=4;spacingRight=4;overflow=hidden;rotatable=0;points=[[0,0.5],[1,0.5]];portConstraint=eastwest;whiteSpace=wrap;html=1;" parent="aUn-TZOy5CU89tunpi1s-44" vertex="1">
          <mxGeometry y="141" width="171" height="26" as="geometry" />
        </mxCell>
        <mxCell id="aUn-TZOy5CU89tunpi1s-48" value="Coordenador" style="swimlane;fontStyle=1;align=center;verticalAlign=top;childLayout=stackLayout;horizontal=1;startSize=26;horizontalStack=0;resizeParent=1;resizeParentMax=0;resizeLast=0;collapsible=1;marginBottom=0;whiteSpace=wrap;html=1;" parent="1" vertex="1">
          <mxGeometry x="14" y="1142" width="219" height="155" as="geometry" />
        </mxCell>
        <mxCell id="aUn-TZOy5CU89tunpi1s-49" value="- instrumentosLeciona: string[]&lt;br&gt;- salario: int" style="text;strokeColor=none;fillColor=none;align=left;verticalAlign=top;spacingLeft=4;spacingRight=4;overflow=hidden;rotatable=0;points=[[0,0.5],[1,0.5]];portConstraint=eastwest;whiteSpace=wrap;html=1;" parent="aUn-TZOy5CU89tunpi1s-48" vertex="1">
          <mxGeometry y="26" width="219" height="95" as="geometry" />
        </mxCell>
        <mxCell id="aUn-TZOy5CU89tunpi1s-50" value="" style="line;strokeWidth=1;fillColor=none;align=left;verticalAlign=middle;spacingTop=-1;spacingLeft=3;spacingRight=3;rotatable=0;labelPosition=right;points=[];portConstraint=eastwest;strokeColor=inherit;" parent="aUn-TZOy5CU89tunpi1s-48" vertex="1">
          <mxGeometry y="121" width="219" height="8" as="geometry" />
        </mxCell>
        <mxCell id="aUn-TZOy5CU89tunpi1s-51" value="+ method(type): type" style="text;strokeColor=none;fillColor=none;align=left;verticalAlign=top;spacingLeft=4;spacingRight=4;overflow=hidden;rotatable=0;points=[[0,0.5],[1,0.5]];portConstraint=eastwest;whiteSpace=wrap;html=1;" parent="aUn-TZOy5CU89tunpi1s-48" vertex="1">
          <mxGeometry y="129" width="219" height="26" as="geometry" />
        </mxCell>
        <mxCell id="aUn-TZOy5CU89tunpi1s-52" value="Instrumento" style="swimlane;fontStyle=1;align=center;verticalAlign=top;childLayout=stackLayout;horizontal=1;startSize=26;horizontalStack=0;resizeParent=1;resizeParentMax=0;resizeLast=0;collapsible=1;marginBottom=0;whiteSpace=wrap;html=1;" parent="1" vertex="1">
          <mxGeometry x="423" y="746" width="281" height="321" as="geometry" />
        </mxCell>
        <mxCell id="aUn-TZOy5CU89tunpi1s-53" value="- idInstrumento: int&lt;br&gt;- nomeInstrumento: Enum&amp;lt;string&amp;gt;&lt;br&gt;&lt;div&gt;- estadoEmprestimo: Enum&amp;lt;string&amp;gt;&lt;/div&gt;&lt;div&gt;- marcaInstrumento: string&lt;/div&gt;&lt;div&gt; - estadoConservacaoDoInstrumento: string&lt;/div&gt;&lt;div&gt;&lt;br&gt;&lt;/div&gt;" style="text;strokeColor=none;fillColor=none;align=left;verticalAlign=top;spacingLeft=4;spacingRight=4;overflow=hidden;rotatable=0;points=[[0,0.5],[1,0.5]];portConstraint=eastwest;whiteSpace=wrap;html=1;" parent="aUn-TZOy5CU89tunpi1s-52" vertex="1">
          <mxGeometry y="26" width="281" height="108" as="geometry" />
        </mxCell>
        <mxCell id="aUn-TZOy5CU89tunpi1s-54" value="" style="line;strokeWidth=1;fillColor=none;align=left;verticalAlign=middle;spacingTop=-1;spacingLeft=3;spacingRight=3;rotatable=0;labelPosition=right;points=[];portConstraint=eastwest;strokeColor=inherit;" parent="aUn-TZOy5CU89tunpi1s-52" vertex="1">
          <mxGeometry y="134" width="281" height="8" as="geometry" />
        </mxCell>
        <mxCell id="aUn-TZOy5CU89tunpi1s-55" value="+ emprestimoInstrumento(Usuario id, idInstrumento) : EmprestimoInstrumento&lt;br&gt;+ retornoInstrumento(EmprestimoInstrumento idEmprestimo) : EmprestimoInstrumento&lt;br&gt;+ getNumeroInstrumentos(nomeInstrumento): int&lt;br&gt;&lt;div&gt;+ listarEmprestimos(dataInicial, dataFinal, nomeInstrumento): string[ [ ] ]&lt;/div&gt;&lt;div&gt;+ getListaPorIdInstrumento(idInstrumento&amp;lt;int&amp;gt; ) : List&amp;lt;nomeInstrumento, estadoEmprestimo, marcaInstrumento, estadoConservacaoInstrumento&amp;nbsp; &amp;gt;&lt;br&gt;&lt;/div&gt;" style="text;strokeColor=none;fillColor=none;align=left;verticalAlign=top;spacingLeft=4;spacingRight=4;overflow=hidden;rotatable=0;points=[[0,0.5],[1,0.5]];portConstraint=eastwest;whiteSpace=wrap;html=1;" parent="aUn-TZOy5CU89tunpi1s-52" vertex="1">
          <mxGeometry y="142" width="281" height="179" as="geometry" />
        </mxCell>
        <mxCell id="aUn-TZOy5CU89tunpi1s-56" value="Turma" style="swimlane;fontStyle=1;align=center;verticalAlign=top;childLayout=stackLayout;horizontal=1;startSize=26;horizontalStack=0;resizeParent=1;resizeParentMax=0;resizeLast=0;collapsible=1;marginBottom=0;whiteSpace=wrap;html=1;" parent="1" vertex="1">
          <mxGeometry x="346" y="1117" width="274" height="342" as="geometry" />
        </mxCell>
        <mxCell id="aUn-TZOy5CU89tunpi1s-57" value="- idTurma: int&lt;br&gt;- nroAlunos: int&lt;br&gt;&lt;div&gt;- isAtiva: boolean&lt;/div&gt;&lt;div&gt;- diaDaSemana: int&lt;br&gt;&lt;/div&gt;&lt;div&gt;- horario: string&lt;br&gt;&lt;/div&gt;&lt;div&gt;- &lt;br&gt;&lt;/div&gt;" style="text;strokeColor=none;fillColor=none;align=left;verticalAlign=top;spacingLeft=4;spacingRight=4;overflow=hidden;rotatable=0;points=[[0,0.5],[1,0.5]];portConstraint=eastwest;whiteSpace=wrap;html=1;" parent="aUn-TZOy5CU89tunpi1s-56" vertex="1">
          <mxGeometry y="26" width="274" height="180" as="geometry" />
        </mxCell>
        <mxCell id="aUn-TZOy5CU89tunpi1s-58" value="" style="line;strokeWidth=1;fillColor=none;align=left;verticalAlign=middle;spacingTop=-1;spacingLeft=3;spacingRight=3;rotatable=0;labelPosition=right;points=[];portConstraint=eastwest;strokeColor=inherit;" parent="aUn-TZOy5CU89tunpi1s-56" vertex="1">
          <mxGeometry y="206" width="274" height="8" as="geometry" />
        </mxCell>
        <mxCell id="aUn-TZOy5CU89tunpi1s-59" value="+ listarTurmas(): string[ [ ] ]&lt;br&gt;+ registrarAlunoTurma(Usuario id, Turma idTurma) : void&lt;br&gt;&lt;div&gt;+ removerAlunoTurma(Usuario id, Turma idTurma) : void&lt;/div&gt;&lt;div&gt;+ getNumeroAlunosPorIdTurma(idTurma&amp;lt;int&amp;gt;) : nroAlunos&amp;lt;int&amp;gt;&lt;br&gt;&lt;/div&gt;&lt;div&gt;&lt;br&gt;&lt;/div&gt;" style="text;strokeColor=none;fillColor=none;align=left;verticalAlign=top;spacingLeft=4;spacingRight=4;overflow=hidden;rotatable=0;points=[[0,0.5],[1,0.5]];portConstraint=eastwest;whiteSpace=wrap;html=1;" parent="aUn-TZOy5CU89tunpi1s-56" vertex="1">
          <mxGeometry y="214" width="274" height="128" as="geometry" />
        </mxCell>
        <mxCell id="aUn-TZOy5CU89tunpi1s-64" value="Extends" style="endArrow=block;endSize=16;endFill=0;html=1;rounded=0;exitX=0.562;exitY=0.013;exitDx=0;exitDy=0;exitPerimeter=0;" parent="1" source="aUn-TZOy5CU89tunpi1s-48" target="3lkJX4Ux8RZ6sUzpUBTn-1" edge="1">
          <mxGeometry width="160" relative="1" as="geometry">
            <mxPoint x="394" y="1074" as="sourcePoint" />
            <mxPoint x="554" y="1074" as="targetPoint" />
            <Array as="points">
              <mxPoint x="136" y="854" />
              <mxPoint x="133" y="570" />
            </Array>
          </mxGeometry>
        </mxCell>
        <mxCell id="aUn-TZOy5CU89tunpi1s-67" value="1" style="endArrow=open;html=1;endSize=12;startArrow=diamondThin;startSize=14;startFill=0;edgeStyle=orthogonalEdgeStyle;align=right;verticalAlign=bottom;rounded=0;horizontal=1;" parent="1" source="aUn-TZOy5CU89tunpi1s-44" target="aUn-TZOy5CU89tunpi1s-56" edge="1">
          <mxGeometry x="-1" y="3" relative="1" as="geometry">
            <mxPoint x="394" y="1074" as="sourcePoint" />
            <mxPoint x="554" y="1074" as="targetPoint" />
            <Array as="points">
              <mxPoint x="588" y="1202" />
              <mxPoint x="588" y="1202" />
            </Array>
          </mxGeometry>
        </mxCell>
        <mxCell id="aUn-TZOy5CU89tunpi1s-68" value="1" style="endArrow=open;html=1;endSize=12;startArrow=diamondThin;startSize=14;startFill=0;edgeStyle=orthogonalEdgeStyle;align=left;verticalAlign=bottom;rounded=0;" parent="1" source="aUn-TZOy5CU89tunpi1s-48" target="aUn-TZOy5CU89tunpi1s-56" edge="1">
          <mxGeometry x="-1" y="3" relative="1" as="geometry">
            <mxPoint x="394" y="1074" as="sourcePoint" />
            <mxPoint x="554" y="1074" as="targetPoint" />
            <Array as="points">
              <mxPoint x="312" y="1220" />
              <mxPoint x="312" y="1220" />
            </Array>
          </mxGeometry>
        </mxCell>
        <mxCell id="aUn-TZOy5CU89tunpi1s-70" value="1" style="endArrow=open;html=1;endSize=12;startArrow=diamondThin;startSize=14;startFill=0;edgeStyle=orthogonalEdgeStyle;align=left;verticalAlign=bottom;rounded=0;" parent="1" source="aUn-TZOy5CU89tunpi1s-32" target="aUn-TZOy5CU89tunpi1s-56" edge="1">
          <mxGeometry x="-1" y="3" relative="1" as="geometry">
            <mxPoint x="394" y="1074" as="sourcePoint" />
            <mxPoint x="464" y="1089" as="targetPoint" />
            <Array as="points">
              <mxPoint x="299" y="1085" />
              <mxPoint x="443" y="1085" />
            </Array>
          </mxGeometry>
        </mxCell>
        <mxCell id="aUn-TZOy5CU89tunpi1s-71" value="EmprestimoInstrumento" style="swimlane;fontStyle=1;align=center;verticalAlign=top;childLayout=stackLayout;horizontal=1;startSize=26;horizontalStack=0;resizeParent=1;resizeParentMax=0;resizeLast=0;collapsible=1;marginBottom=0;whiteSpace=wrap;html=1;" parent="1" vertex="1">
          <mxGeometry x="754" y="809" width="189" height="177" as="geometry" />
        </mxCell>
        <mxCell id="aUn-TZOy5CU89tunpi1s-72" value="- idEmprestimo: int&lt;br&gt;- dataInicialEmprestimo: Date&lt;br&gt;&lt;div&gt;- dataFinalEmprestimo: Date&lt;/div&gt;&lt;div&gt;-&lt;br&gt;&lt;/div&gt;" style="text;strokeColor=none;fillColor=none;align=left;verticalAlign=top;spacingLeft=4;spacingRight=4;overflow=hidden;rotatable=0;points=[[0,0.5],[1,0.5]];portConstraint=eastwest;whiteSpace=wrap;html=1;" parent="aUn-TZOy5CU89tunpi1s-71" vertex="1">
          <mxGeometry y="26" width="189" height="82" as="geometry" />
        </mxCell>
        <mxCell id="aUn-TZOy5CU89tunpi1s-73" value="" style="line;strokeWidth=1;fillColor=none;align=left;verticalAlign=middle;spacingTop=-1;spacingLeft=3;spacingRight=3;rotatable=0;labelPosition=right;points=[];portConstraint=eastwest;strokeColor=inherit;" parent="aUn-TZOy5CU89tunpi1s-71" vertex="1">
          <mxGeometry y="108" width="189" height="69" as="geometry" />
        </mxCell>
        <mxCell id="aUn-TZOy5CU89tunpi1s-75" value="1" style="endArrow=open;html=1;endSize=12;startArrow=diamondThin;startSize=14;startFill=1;edgeStyle=orthogonalEdgeStyle;align=left;verticalAlign=bottom;rounded=0;" parent="1" source="aUn-TZOy5CU89tunpi1s-32" target="aUn-TZOy5CU89tunpi1s-52" edge="1">
          <mxGeometry x="-1" y="3" relative="1" as="geometry">
            <mxPoint x="394" y="1074" as="sourcePoint" />
            <mxPoint x="554" y="1074" as="targetPoint" />
            <Array as="points">
              <mxPoint x="409" y="867" />
              <mxPoint x="409" y="867" />
            </Array>
          </mxGeometry>
        </mxCell>
        <mxCell id="aUn-TZOy5CU89tunpi1s-78" value="" style="endArrow=open;endFill=1;endSize=12;html=1;rounded=0;" parent="1" source="aUn-TZOy5CU89tunpi1s-52" target="aUn-TZOy5CU89tunpi1s-71" edge="1">
          <mxGeometry width="160" relative="1" as="geometry">
            <mxPoint x="772" y="1004" as="sourcePoint" />
            <mxPoint x="932" y="1004" as="targetPoint" />
          </mxGeometry>
        </mxCell>
        <mxCell id="aUn-TZOy5CU89tunpi1s-79" value="1" style="endArrow=open;html=1;endSize=12;startArrow=diamondThin;startSize=14;startFill=1;edgeStyle=orthogonalEdgeStyle;align=left;verticalAlign=bottom;rounded=0;exitX=0;exitY=0.5;exitDx=0;exitDy=0;" parent="1" source="aUn-TZOy5CU89tunpi1s-33" target="aUn-TZOy5CU89tunpi1s-40" edge="1">
          <mxGeometry x="-1" y="3" relative="1" as="geometry">
            <mxPoint x="394" y="1074" as="sourcePoint" />
            <mxPoint x="554" y="1074" as="targetPoint" />
            <Array as="points">
              <mxPoint x="173" y="758" />
              <mxPoint x="88" y="758" />
            </Array>
          </mxGeometry>
        </mxCell>
        <mxCell id="aUn-TZOy5CU89tunpi1s-93" value="Contribuicoes" style="swimlane;fontStyle=1;align=center;verticalAlign=top;childLayout=stackLayout;horizontal=1;startSize=26;horizontalStack=0;resizeParent=1;resizeParentMax=0;resizeLast=0;collapsible=1;marginBottom=0;whiteSpace=wrap;html=1;" parent="1" vertex="1">
          <mxGeometry x="-109" y="706" width="160" height="157" as="geometry" />
        </mxCell>
        <mxCell id="aUn-TZOy5CU89tunpi1s-94" value="- id: int&lt;br&gt;- dataContibuicao: Date&lt;br&gt;- valorContribuicao: int" style="text;strokeColor=none;fillColor=none;align=left;verticalAlign=top;spacingLeft=4;spacingRight=4;overflow=hidden;rotatable=0;points=[[0,0.5],[1,0.5]];portConstraint=eastwest;whiteSpace=wrap;html=1;" parent="aUn-TZOy5CU89tunpi1s-93" vertex="1">
          <mxGeometry y="26" width="160" height="97" as="geometry" />
        </mxCell>
        <mxCell id="aUn-TZOy5CU89tunpi1s-95" value="" style="line;strokeWidth=1;fillColor=none;align=left;verticalAlign=middle;spacingTop=-1;spacingLeft=3;spacingRight=3;rotatable=0;labelPosition=right;points=[];portConstraint=eastwest;strokeColor=inherit;" parent="aUn-TZOy5CU89tunpi1s-93" vertex="1">
          <mxGeometry y="123" width="160" height="8" as="geometry" />
        </mxCell>
        <mxCell id="aUn-TZOy5CU89tunpi1s-96" value="+ method(type): type" style="text;strokeColor=none;fillColor=none;align=left;verticalAlign=top;spacingLeft=4;spacingRight=4;overflow=hidden;rotatable=0;points=[[0,0.5],[1,0.5]];portConstraint=eastwest;whiteSpace=wrap;html=1;" parent="aUn-TZOy5CU89tunpi1s-93" vertex="1">
          <mxGeometry y="131" width="160" height="26" as="geometry" />
        </mxCell>
        <mxCell id="aUn-TZOy5CU89tunpi1s-97" value="1" style="endArrow=open;html=1;endSize=12;startArrow=diamondThin;startSize=14;startFill=0;edgeStyle=orthogonalEdgeStyle;align=left;verticalAlign=bottom;rounded=0;" parent="1" source="aUn-TZOy5CU89tunpi1s-32" target="aUn-TZOy5CU89tunpi1s-93" edge="1">
          <mxGeometry x="-1" y="3" relative="1" as="geometry">
            <mxPoint x="329" y="928" as="sourcePoint" />
            <mxPoint x="489" y="928" as="targetPoint" />
            <Array as="points">
              <mxPoint x="84" y="867" />
              <mxPoint x="84" y="785" />
            </Array>
          </mxGeometry>
        </mxCell>
        <mxCell id="Tblm0iQjoKCew46TgZgH-1" value="&amp;lt;&amp;lt;dispositivo&amp;gt;&amp;gt;&lt;br&gt;Browser do cliente" style="verticalAlign=top;align=center;spacingTop=8;spacingLeft=2;spacingRight=12;shape=cube;size=10;direction=south;fontStyle=4;html=1;whiteSpace=wrap;" parent="1" vertex="1">
          <mxGeometry x="-726" y="-101" width="180" height="120" as="geometry" />
        </mxCell>
        <mxCell id="Tblm0iQjoKCew46TgZgH-2" value="&amp;lt;&amp;lt;artefato&amp;gt;&amp;gt;&lt;br&gt;Browser Web" style="html=1;whiteSpace=wrap;align=center;" parent="1" vertex="1">
          <mxGeometry x="-702" y="-47" width="110" height="50" as="geometry" />
        </mxCell>
        <mxCell id="Tblm0iQjoKCew46TgZgH-3" value="&amp;lt;&amp;lt;dispositivo&amp;gt;&amp;gt;&lt;br&gt;Servidor web&lt;br&gt;&lt;br&gt;&lt;br&gt;&lt;div style=&quot;text-align: left;&quot;&gt;{servidor web = cloud&lt;span style=&quot;background-color: initial;&quot;&gt;}&lt;/span&gt;&lt;/div&gt;&lt;div style=&quot;text-align: left;&quot;&gt;&lt;span style=&quot;background-color: initial;&quot;&gt;{OS = Linux}&lt;/span&gt;&lt;/div&gt;" style="verticalAlign=top;align=center;spacingTop=8;spacingLeft=2;spacingRight=12;shape=cube;size=10;direction=south;fontStyle=4;html=1;whiteSpace=wrap;" parent="1" vertex="1">
          <mxGeometry x="-420" y="-101" width="180" height="120" as="geometry" />
        </mxCell>
        <mxCell id="Tblm0iQjoKCew46TgZgH-6" value="" style="endArrow=none;html=1;rounded=0;entryX=0;entryY=0;entryDx=65;entryDy=180;entryPerimeter=0;exitX=0.542;exitY=-0.006;exitDx=0;exitDy=0;exitPerimeter=0;" parent="1" source="Tblm0iQjoKCew46TgZgH-1" target="Tblm0iQjoKCew46TgZgH-3" edge="1">
          <mxGeometry width="50" height="50" relative="1" as="geometry">
            <mxPoint x="-216" y="114" as="sourcePoint" />
            <mxPoint x="-166" y="64" as="targetPoint" />
          </mxGeometry>
        </mxCell>
        <mxCell id="Tblm0iQjoKCew46TgZgH-7" value="http/internet" style="text;html=1;strokeColor=none;fillColor=none;align=center;verticalAlign=middle;whiteSpace=wrap;rounded=0;" parent="1" vertex="1">
          <mxGeometry x="-516" y="-66" width="60" height="30" as="geometry" />
        </mxCell>
        <mxCell id="FAkx_wA7FtMw9XLHccDj-1" value="Unidade" style="swimlane;fontStyle=1;align=center;verticalAlign=top;childLayout=stackLayout;horizontal=1;startSize=26;horizontalStack=0;resizeParent=1;resizeParentMax=0;resizeLast=0;collapsible=1;marginBottom=0;whiteSpace=wrap;html=1;" parent="1" vertex="1">
          <mxGeometry x="-128" y="514" width="207" height="145" as="geometry" />
        </mxCell>
        <mxCell id="FAkx_wA7FtMw9XLHccDj-2" value="&lt;div&gt;- id: int&lt;br&gt;&lt;/div&gt;&lt;div&gt;- nome: string&lt;/div&gt;&lt;div&gt;&lt;br&gt;&lt;/div&gt;&lt;div&gt;&lt;br&gt;&lt;/div&gt;" style="text;strokeColor=none;fillColor=none;align=left;verticalAlign=top;spacingLeft=4;spacingRight=4;overflow=hidden;rotatable=0;points=[[0,0.5],[1,0.5]];portConstraint=eastwest;whiteSpace=wrap;html=1;" parent="FAkx_wA7FtMw9XLHccDj-1" vertex="1">
          <mxGeometry y="26" width="207" height="53" as="geometry" />
        </mxCell>
        <mxCell id="FAkx_wA7FtMw9XLHccDj-3" value="" style="line;strokeWidth=1;fillColor=none;align=left;verticalAlign=middle;spacingTop=-1;spacingLeft=3;spacingRight=3;rotatable=0;labelPosition=right;points=[];portConstraint=eastwest;strokeColor=inherit;" parent="FAkx_wA7FtMw9XLHccDj-1" vertex="1">
          <mxGeometry y="79" width="207" height="8" as="geometry" />
        </mxCell>
        <mxCell id="FAkx_wA7FtMw9XLHccDj-4" value="- getNomeUnidadePorId(id&amp;lt;int&amp;gt;) : nome &amp;lt;string&amp;gt;" style="text;strokeColor=none;fillColor=none;align=left;verticalAlign=top;spacingLeft=4;spacingRight=4;overflow=hidden;rotatable=0;points=[[0,0.5],[1,0.5]];portConstraint=eastwest;whiteSpace=wrap;html=1;" parent="FAkx_wA7FtMw9XLHccDj-1" vertex="1">
          <mxGeometry y="87" width="207" height="58" as="geometry" />
        </mxCell>
        <mxCell id="FAkx_wA7FtMw9XLHccDj-5" value="" style="endArrow=block;endFill=1;html=1;edgeStyle=orthogonalEdgeStyle;align=left;verticalAlign=top;rounded=0;" parent="1" source="FAkx_wA7FtMw9XLHccDj-1" target="aUn-TZOy5CU89tunpi1s-40" edge="1">
          <mxGeometry x="-1" relative="1" as="geometry">
            <mxPoint x="138" y="885" as="sourcePoint" />
            <mxPoint x="298" y="885" as="targetPoint" />
            <Array as="points">
              <mxPoint x="-24" y="479" />
              <mxPoint x="-24" y="479" />
            </Array>
          </mxGeometry>
        </mxCell>
        <mxCell id="FAkx_wA7FtMw9XLHccDj-6" value="1" style="edgeLabel;resizable=0;html=1;align=left;verticalAlign=bottom;" parent="FAkx_wA7FtMw9XLHccDj-5" connectable="0" vertex="1">
          <mxGeometry x="-1" relative="1" as="geometry" />
        </mxCell>
        <mxCell id="FAkx_wA7FtMw9XLHccDj-11" value="Admin" style="swimlane;fontStyle=1;align=center;verticalAlign=top;childLayout=stackLayout;horizontal=1;startSize=26;horizontalStack=0;resizeParent=1;resizeParentMax=0;resizeLast=0;collapsible=1;marginBottom=0;whiteSpace=wrap;html=1;" parent="1" vertex="1">
          <mxGeometry x="190" y="313" width="160" height="93" as="geometry" />
        </mxCell>
        <mxCell id="FAkx_wA7FtMw9XLHccDj-12" value="- id: int&lt;br&gt;&lt;div&gt;- senha: string&lt;/div&gt;" style="text;strokeColor=none;fillColor=none;align=left;verticalAlign=top;spacingLeft=4;spacingRight=4;overflow=hidden;rotatable=0;points=[[0,0.5],[1,0.5]];portConstraint=eastwest;whiteSpace=wrap;html=1;" parent="FAkx_wA7FtMw9XLHccDj-11" vertex="1">
          <mxGeometry y="26" width="160" height="59" as="geometry" />
        </mxCell>
        <mxCell id="FAkx_wA7FtMw9XLHccDj-13" value="" style="line;strokeWidth=1;fillColor=none;align=left;verticalAlign=middle;spacingTop=-1;spacingLeft=3;spacingRight=3;rotatable=0;labelPosition=right;points=[];portConstraint=eastwest;strokeColor=inherit;" parent="FAkx_wA7FtMw9XLHccDj-11" vertex="1">
          <mxGeometry y="85" width="160" height="8" as="geometry" />
        </mxCell>
        <mxCell id="FAkx_wA7FtMw9XLHccDj-16" value="1" style="endArrow=open;html=1;endSize=12;startArrow=diamondThin;startSize=14;startFill=1;edgeStyle=orthogonalEdgeStyle;align=left;verticalAlign=bottom;rounded=0;" parent="1" source="aUn-TZOy5CU89tunpi1s-56" target="FAkx_wA7FtMw9XLHccDj-1" edge="1">
          <mxGeometry x="-1" y="3" relative="1" as="geometry">
            <mxPoint x="497" y="1134" as="sourcePoint" />
            <mxPoint x="-245" y="992" as="targetPoint" />
            <Array as="points">
              <mxPoint x="-170" y="1342" />
              <mxPoint x="-170" y="587" />
            </Array>
          </mxGeometry>
        </mxCell>
        <mxCell id="FAkx_wA7FtMw9XLHccDj-17" value="LogAlteracaoAluno" style="swimlane;fontStyle=1;align=center;verticalAlign=top;childLayout=stackLayout;horizontal=1;startSize=26;horizontalStack=0;resizeParent=1;resizeParentMax=0;resizeLast=0;collapsible=1;marginBottom=0;whiteSpace=wrap;html=1;" parent="1" vertex="1">
          <mxGeometry x="439" y="468" width="160" height="86" as="geometry" />
        </mxCell>
        <mxCell id="FAkx_wA7FtMw9XLHccDj-18" value="+ field: type" style="text;strokeColor=none;fillColor=none;align=left;verticalAlign=top;spacingLeft=4;spacingRight=4;overflow=hidden;rotatable=0;points=[[0,0.5],[1,0.5]];portConstraint=eastwest;whiteSpace=wrap;html=1;" parent="FAkx_wA7FtMw9XLHccDj-17" vertex="1">
          <mxGeometry y="26" width="160" height="26" as="geometry" />
        </mxCell>
        <mxCell id="FAkx_wA7FtMw9XLHccDj-19" value="" style="line;strokeWidth=1;fillColor=none;align=left;verticalAlign=middle;spacingTop=-1;spacingLeft=3;spacingRight=3;rotatable=0;labelPosition=right;points=[];portConstraint=eastwest;strokeColor=inherit;" parent="FAkx_wA7FtMw9XLHccDj-17" vertex="1">
          <mxGeometry y="52" width="160" height="8" as="geometry" />
        </mxCell>
        <mxCell id="FAkx_wA7FtMw9XLHccDj-20" value="+ method(type): type" style="text;strokeColor=none;fillColor=none;align=left;verticalAlign=top;spacingLeft=4;spacingRight=4;overflow=hidden;rotatable=0;points=[[0,0.5],[1,0.5]];portConstraint=eastwest;whiteSpace=wrap;html=1;" parent="FAkx_wA7FtMw9XLHccDj-17" vertex="1">
          <mxGeometry y="60" width="160" height="26" as="geometry" />
        </mxCell>
        <mxCell id="kkjx6y--5YrOob6DHT2B-1" value="&lt;font color=&quot;#197500&quot; style=&quot;font-size: 19px;&quot;&gt;&lt;b&gt;Historias dos Usuarios&lt;/b&gt;&lt;/font&gt;" style="text;html=1;strokeColor=none;fillColor=none;align=center;verticalAlign=middle;whiteSpace=wrap;rounded=0;" parent="1" vertex="1">
          <mxGeometry x="-1919" y="49" width="303" height="30" as="geometry" />
        </mxCell>
        <mxCell id="kkjx6y--5YrOob6DHT2B-16" value="Assets" style="childLayout=tableLayout;recursiveResize=0;strokeColor=#98bf21;fillColor=#A7C942;shadow=1;fontSize=16;" parent="1" vertex="1">
          <mxGeometry x="-2452" y="106" width="1465" height="572.8725" as="geometry" />
        </mxCell>
        <mxCell id="kkjx6y--5YrOob6DHT2B-17" style="shape=tableRow;horizontal=0;startSize=0;swimlaneHead=0;swimlaneBody=0;top=0;left=0;bottom=0;right=0;dropTarget=0;collapsible=0;recursiveResize=0;expand=0;fontStyle=0;strokeColor=inherit;fillColor=#ffffff;fontSize=16;" parent="kkjx6y--5YrOob6DHT2B-16" vertex="1">
          <mxGeometry width="1465" height="42" as="geometry" />
        </mxCell>
        <mxCell id="kkjx6y--5YrOob6DHT2B-240" value="#&amp;nbsp;" style="connectable=0;recursiveResize=0;strokeColor=inherit;fillColor=#A7C942;align=center;fontStyle=1;fontColor=#FFFFFF;html=1;fontSize=16;" parent="kkjx6y--5YrOob6DHT2B-17" vertex="1">
          <mxGeometry width="97" height="42" as="geometry">
            <mxRectangle width="97" height="42" as="alternateBounds" />
          </mxGeometry>
        </mxCell>
        <mxCell id="kkjx6y--5YrOob6DHT2B-18" value="EU COMO..." style="connectable=0;recursiveResize=0;strokeColor=inherit;fillColor=#A7C942;align=center;fontStyle=1;fontColor=#FFFFFF;html=1;fontSize=16;" parent="kkjx6y--5YrOob6DHT2B-17" vertex="1">
          <mxGeometry x="97" width="197" height="42" as="geometry">
            <mxRectangle width="197" height="42" as="alternateBounds" />
          </mxGeometry>
        </mxCell>
        <mxCell id="kkjx6y--5YrOob6DHT2B-19" value="QUERO/PRECISO..." style="connectable=0;recursiveResize=0;strokeColor=inherit;fillColor=#A7C942;align=center;fontStyle=1;fontColor=#FFFFFF;html=1;fontSize=16;" parent="kkjx6y--5YrOob6DHT2B-17" vertex="1">
          <mxGeometry x="294" width="595" height="42" as="geometry">
            <mxRectangle width="595" height="42" as="alternateBounds" />
          </mxGeometry>
        </mxCell>
        <mxCell id="kkjx6y--5YrOob6DHT2B-20" value="PARA..." style="connectable=0;recursiveResize=0;strokeColor=inherit;fillColor=#A7C942;align=center;fontStyle=1;fontColor=#FFFFFF;html=1;fontSize=16;" parent="kkjx6y--5YrOob6DHT2B-17" vertex="1">
          <mxGeometry x="889" width="576" height="42" as="geometry">
            <mxRectangle width="576" height="42" as="alternateBounds" />
          </mxGeometry>
        </mxCell>
        <mxCell id="kkjx6y--5YrOob6DHT2B-21" value="" style="shape=tableRow;horizontal=0;startSize=0;swimlaneHead=0;swimlaneBody=0;top=0;left=0;bottom=0;right=0;dropTarget=0;collapsible=0;recursiveResize=0;expand=0;fontStyle=0;fontSize=16;strokeColor=inherit;" parent="kkjx6y--5YrOob6DHT2B-16" vertex="1">
          <mxGeometry y="42" width="1465" height="40" as="geometry" />
        </mxCell>
        <mxCell id="kkjx6y--5YrOob6DHT2B-241" value="1" style="connectable=0;recursiveResize=0;align=center;whiteSpace=wrap;html=1;fontSize=16;strokeColor=inherit;" parent="kkjx6y--5YrOob6DHT2B-21" vertex="1">
          <mxGeometry width="97" height="40" as="geometry">
            <mxRectangle width="97" height="40" as="alternateBounds" />
          </mxGeometry>
        </mxCell>
        <mxCell id="kkjx6y--5YrOob6DHT2B-22" value="Admin / Gestor" style="connectable=0;recursiveResize=0;align=center;whiteSpace=wrap;html=1;fontSize=16;strokeColor=inherit;" parent="kkjx6y--5YrOob6DHT2B-21" vertex="1">
          <mxGeometry x="97" width="197" height="40" as="geometry">
            <mxRectangle width="197" height="40" as="alternateBounds" />
          </mxGeometry>
        </mxCell>
        <mxCell id="kkjx6y--5YrOob6DHT2B-23" value="Recuperar minha senha de acesso" style="connectable=0;recursiveResize=0;align=center;whiteSpace=wrap;html=1;fontSize=16;strokeColor=inherit;" parent="kkjx6y--5YrOob6DHT2B-21" vertex="1">
          <mxGeometry x="294" width="595" height="40" as="geometry">
            <mxRectangle width="595" height="40" as="alternateBounds" />
          </mxGeometry>
        </mxCell>
        <mxCell id="kkjx6y--5YrOob6DHT2B-24" value="Fazer o login e entrar no sistema" style="connectable=0;recursiveResize=0;align=center;whiteSpace=wrap;html=1;fontSize=16;strokeColor=inherit;" parent="kkjx6y--5YrOob6DHT2B-21" vertex="1">
          <mxGeometry x="889" width="576" height="40" as="geometry">
            <mxRectangle width="576" height="40" as="alternateBounds" />
          </mxGeometry>
        </mxCell>
        <mxCell id="kkjx6y--5YrOob6DHT2B-25" value="" style="shape=tableRow;horizontal=0;startSize=0;swimlaneHead=0;swimlaneBody=0;top=0;left=0;bottom=0;right=0;dropTarget=0;collapsible=0;recursiveResize=0;expand=0;fontStyle=1;fontSize=16;strokeColor=inherit;" parent="kkjx6y--5YrOob6DHT2B-16" vertex="1">
          <mxGeometry y="82" width="1465" height="40" as="geometry" />
        </mxCell>
        <mxCell id="kkjx6y--5YrOob6DHT2B-242" value="&lt;div style=&quot;&quot;&gt;&lt;span style=&quot;background-color: initial;&quot;&gt;1.1&lt;/span&gt;&lt;/div&gt;" style="connectable=0;recursiveResize=0;whiteSpace=wrap;html=1;fontSize=16;align=center;strokeColor=inherit;" parent="kkjx6y--5YrOob6DHT2B-25" vertex="1">
          <mxGeometry width="97" height="40" as="geometry">
            <mxRectangle width="97" height="40" as="alternateBounds" />
          </mxGeometry>
        </mxCell>
        <mxCell id="kkjx6y--5YrOob6DHT2B-26" value="Admin / Gestor" style="connectable=0;recursiveResize=0;whiteSpace=wrap;html=1;fontSize=16;strokeColor=inherit;" parent="kkjx6y--5YrOob6DHT2B-25" vertex="1">
          <mxGeometry x="97" width="197" height="40" as="geometry">
            <mxRectangle width="197" height="40" as="alternateBounds" />
          </mxGeometry>
        </mxCell>
        <mxCell id="kkjx6y--5YrOob6DHT2B-27" value="Minha senha provisória seja enviada no email que esta no meu cadastro" style="connectable=0;recursiveResize=0;whiteSpace=wrap;html=1;fontSize=16;strokeColor=inherit;" parent="kkjx6y--5YrOob6DHT2B-25" vertex="1">
          <mxGeometry x="294" width="595" height="40" as="geometry">
            <mxRectangle width="595" height="40" as="alternateBounds" />
          </mxGeometry>
        </mxCell>
        <mxCell id="kkjx6y--5YrOob6DHT2B-28" value="Fazer o login e entrar no sistema" style="connectable=0;recursiveResize=0;whiteSpace=wrap;html=1;fontSize=16;strokeColor=inherit;" parent="kkjx6y--5YrOob6DHT2B-25" vertex="1">
          <mxGeometry x="889" width="576" height="40" as="geometry">
            <mxRectangle width="576" height="40" as="alternateBounds" />
          </mxGeometry>
        </mxCell>
        <mxCell id="kkjx6y--5YrOob6DHT2B-29" value="" style="shape=tableRow;horizontal=0;startSize=0;swimlaneHead=0;swimlaneBody=0;top=0;left=0;bottom=0;right=0;dropTarget=0;collapsible=0;recursiveResize=0;expand=0;fontStyle=0;fontSize=16;strokeColor=inherit;" parent="kkjx6y--5YrOob6DHT2B-16" vertex="1">
          <mxGeometry y="122" width="1465" height="42" as="geometry" />
        </mxCell>
        <mxCell id="kkjx6y--5YrOob6DHT2B-243" value="2" style="connectable=0;recursiveResize=0;fontStyle=0;align=center;whiteSpace=wrap;html=1;fontSize=16;strokeColor=inherit;" parent="kkjx6y--5YrOob6DHT2B-29" vertex="1">
          <mxGeometry width="97" height="42" as="geometry">
            <mxRectangle width="97" height="42" as="alternateBounds" />
          </mxGeometry>
        </mxCell>
        <mxCell id="kkjx6y--5YrOob6DHT2B-30" value="Admin / Gestor" style="connectable=0;recursiveResize=0;fontStyle=0;align=center;whiteSpace=wrap;html=1;fontSize=16;strokeColor=inherit;" parent="kkjx6y--5YrOob6DHT2B-29" vertex="1">
          <mxGeometry x="97" width="197" height="42" as="geometry">
            <mxRectangle width="197" height="42" as="alternateBounds" />
          </mxGeometry>
        </mxCell>
        <mxCell id="kkjx6y--5YrOob6DHT2B-31" value="Visualizar as informações dos cursos e alunos das Unidades/Polos da escola" style="connectable=0;recursiveResize=0;fontStyle=0;align=center;whiteSpace=wrap;html=1;fontSize=16;strokeColor=inherit;" parent="kkjx6y--5YrOob6DHT2B-29" vertex="1">
          <mxGeometry x="294" width="595" height="42" as="geometry">
            <mxRectangle width="595" height="42" as="alternateBounds" />
          </mxGeometry>
        </mxCell>
        <mxCell id="kkjx6y--5YrOob6DHT2B-32" value="Gerenciar os cursos e pessoal para cada local" style="connectable=0;recursiveResize=0;fontStyle=0;align=center;whiteSpace=wrap;html=1;fontSize=16;strokeColor=inherit;" parent="kkjx6y--5YrOob6DHT2B-29" vertex="1">
          <mxGeometry x="889" width="576" height="42" as="geometry">
            <mxRectangle width="576" height="42" as="alternateBounds" />
          </mxGeometry>
        </mxCell>
        <mxCell id="kkjx6y--5YrOob6DHT2B-33" value="" style="shape=tableRow;horizontal=0;startSize=0;swimlaneHead=0;swimlaneBody=0;top=0;left=0;bottom=0;right=0;dropTarget=0;collapsible=0;recursiveResize=0;expand=0;fontStyle=1;fontSize=16;strokeColor=inherit;" parent="kkjx6y--5YrOob6DHT2B-16" vertex="1">
          <mxGeometry y="164" width="1465" height="42" as="geometry" />
        </mxCell>
        <mxCell id="kkjx6y--5YrOob6DHT2B-244" value="2.1" style="connectable=0;recursiveResize=0;whiteSpace=wrap;html=1;fontSize=16;strokeColor=inherit;" parent="kkjx6y--5YrOob6DHT2B-33" vertex="1">
          <mxGeometry width="97" height="42" as="geometry">
            <mxRectangle width="97" height="42" as="alternateBounds" />
          </mxGeometry>
        </mxCell>
        <mxCell id="kkjx6y--5YrOob6DHT2B-34" value="Admin / Gestor" style="connectable=0;recursiveResize=0;whiteSpace=wrap;html=1;fontSize=16;strokeColor=inherit;" parent="kkjx6y--5YrOob6DHT2B-33" vertex="1">
          <mxGeometry x="97" width="197" height="42" as="geometry">
            <mxRectangle width="197" height="42" as="alternateBounds" />
          </mxGeometry>
        </mxCell>
        <mxCell id="kkjx6y--5YrOob6DHT2B-35" value="Adicionar e alterar Unidades/Polos" style="connectable=0;recursiveResize=0;whiteSpace=wrap;html=1;fontSize=16;strokeColor=inherit;" parent="kkjx6y--5YrOob6DHT2B-33" vertex="1">
          <mxGeometry x="294" width="595" height="42" as="geometry">
            <mxRectangle width="595" height="42" as="alternateBounds" />
          </mxGeometry>
        </mxCell>
        <mxCell id="kkjx6y--5YrOob6DHT2B-36" value="Incluir uma nova Unidade ou modificar os dados de uma Unidade existente" style="connectable=0;recursiveResize=0;whiteSpace=wrap;html=1;fontSize=16;strokeColor=inherit;" parent="kkjx6y--5YrOob6DHT2B-33" vertex="1">
          <mxGeometry x="889" width="576" height="42" as="geometry">
            <mxRectangle width="576" height="42" as="alternateBounds" />
          </mxGeometry>
        </mxCell>
        <mxCell id="kkjx6y--5YrOob6DHT2B-115" value="" style="shape=tableRow;horizontal=0;startSize=0;swimlaneHead=0;swimlaneBody=0;top=0;left=0;bottom=0;right=0;dropTarget=0;collapsible=0;recursiveResize=0;expand=0;fontStyle=0;fontSize=16;strokeColor=inherit;" parent="kkjx6y--5YrOob6DHT2B-16" vertex="1">
          <mxGeometry y="206" width="1465" height="45" as="geometry" />
        </mxCell>
        <mxCell id="kkjx6y--5YrOob6DHT2B-245" value="3" style="connectable=0;recursiveResize=0;fontStyle=0;align=center;whiteSpace=wrap;html=1;fontSize=16;strokeColor=inherit;" parent="kkjx6y--5YrOob6DHT2B-115" vertex="1">
          <mxGeometry width="97" height="45" as="geometry">
            <mxRectangle width="97" height="45" as="alternateBounds" />
          </mxGeometry>
        </mxCell>
        <mxCell id="kkjx6y--5YrOob6DHT2B-116" value="Admin / Gestor" style="connectable=0;recursiveResize=0;fontStyle=0;align=center;whiteSpace=wrap;html=1;fontSize=16;strokeColor=inherit;" parent="kkjx6y--5YrOob6DHT2B-115" vertex="1">
          <mxGeometry x="97" width="197" height="45" as="geometry">
            <mxRectangle width="197" height="45" as="alternateBounds" />
          </mxGeometry>
        </mxCell>
        <mxCell id="kkjx6y--5YrOob6DHT2B-117" value="Visualisar as informações dos cursos de música da escola" style="connectable=0;recursiveResize=0;fontStyle=0;align=center;whiteSpace=wrap;html=1;fontSize=16;strokeColor=inherit;" parent="kkjx6y--5YrOob6DHT2B-115" vertex="1">
          <mxGeometry x="294" width="595" height="45" as="geometry">
            <mxRectangle width="595" height="45" as="alternateBounds" />
          </mxGeometry>
        </mxCell>
        <mxCell id="kkjx6y--5YrOob6DHT2B-118" value="Organizar os horários e os locais onde serão realizadas as aulas" style="connectable=0;recursiveResize=0;fontStyle=0;align=center;whiteSpace=wrap;html=1;fontSize=16;strokeColor=inherit;" parent="kkjx6y--5YrOob6DHT2B-115" vertex="1">
          <mxGeometry x="889" width="576" height="45" as="geometry">
            <mxRectangle width="576" height="45" as="alternateBounds" />
          </mxGeometry>
        </mxCell>
        <mxCell id="kkjx6y--5YrOob6DHT2B-72" value="" style="shape=tableRow;horizontal=0;startSize=0;swimlaneHead=0;swimlaneBody=0;top=0;left=0;bottom=0;right=0;dropTarget=0;collapsible=0;recursiveResize=0;expand=0;fontStyle=1;fontSize=16;strokeColor=inherit;" parent="kkjx6y--5YrOob6DHT2B-16" vertex="1">
          <mxGeometry y="251" width="1465" height="39" as="geometry" />
        </mxCell>
        <mxCell id="kkjx6y--5YrOob6DHT2B-246" value="3.1" style="connectable=0;recursiveResize=0;whiteSpace=wrap;html=1;fontSize=16;strokeColor=inherit;" parent="kkjx6y--5YrOob6DHT2B-72" vertex="1">
          <mxGeometry width="97" height="39" as="geometry">
            <mxRectangle width="97" height="39" as="alternateBounds" />
          </mxGeometry>
        </mxCell>
        <mxCell id="kkjx6y--5YrOob6DHT2B-73" value="Admin / Gestor" style="connectable=0;recursiveResize=0;whiteSpace=wrap;html=1;fontSize=16;strokeColor=inherit;" parent="kkjx6y--5YrOob6DHT2B-72" vertex="1">
          <mxGeometry x="97" width="197" height="39" as="geometry">
            <mxRectangle width="197" height="39" as="alternateBounds" />
          </mxGeometry>
        </mxCell>
        <mxCell id="kkjx6y--5YrOob6DHT2B-74" value="Adicionar e alterar as turmas dos cursos" style="connectable=0;recursiveResize=0;whiteSpace=wrap;html=1;fontSize=16;strokeColor=inherit;" parent="kkjx6y--5YrOob6DHT2B-72" vertex="1">
          <mxGeometry x="294" width="595" height="39" as="geometry">
            <mxRectangle width="595" height="39" as="alternateBounds" />
          </mxGeometry>
        </mxCell>
        <mxCell id="kkjx6y--5YrOob6DHT2B-75" value="Para cadastrar um novo curso ou alterar um curso existente" style="connectable=0;recursiveResize=0;whiteSpace=wrap;html=1;fontSize=16;strokeColor=inherit;" parent="kkjx6y--5YrOob6DHT2B-72" vertex="1">
          <mxGeometry x="889" width="576" height="39" as="geometry">
            <mxRectangle width="576" height="39" as="alternateBounds" />
          </mxGeometry>
        </mxCell>
        <mxCell id="kkjx6y--5YrOob6DHT2B-119" value="" style="shape=tableRow;horizontal=0;startSize=0;swimlaneHead=0;swimlaneBody=0;top=0;left=0;bottom=0;right=0;dropTarget=0;collapsible=0;recursiveResize=0;expand=0;fontStyle=0;fontSize=16;strokeColor=inherit;" parent="kkjx6y--5YrOob6DHT2B-16" vertex="1">
          <mxGeometry y="290" width="1465" height="43" as="geometry" />
        </mxCell>
        <mxCell id="kkjx6y--5YrOob6DHT2B-247" value="4" style="connectable=0;recursiveResize=0;fontStyle=0;align=center;whiteSpace=wrap;html=1;fontSize=16;strokeColor=inherit;" parent="kkjx6y--5YrOob6DHT2B-119" vertex="1">
          <mxGeometry width="97" height="43" as="geometry">
            <mxRectangle width="97" height="43" as="alternateBounds" />
          </mxGeometry>
        </mxCell>
        <mxCell id="kkjx6y--5YrOob6DHT2B-120" value="Admin / Gestor" style="connectable=0;recursiveResize=0;fontStyle=0;align=center;whiteSpace=wrap;html=1;fontSize=16;strokeColor=inherit;" parent="kkjx6y--5YrOob6DHT2B-119" vertex="1">
          <mxGeometry x="97" width="197" height="43" as="geometry">
            <mxRectangle width="197" height="43" as="alternateBounds" />
          </mxGeometry>
        </mxCell>
        <mxCell id="kkjx6y--5YrOob6DHT2B-121" value="Cadastrar alunos de modo virtual" style="connectable=0;recursiveResize=0;fontStyle=0;align=center;whiteSpace=wrap;html=1;fontSize=16;strokeColor=inherit;" parent="kkjx6y--5YrOob6DHT2B-119" vertex="1">
          <mxGeometry x="294" width="595" height="43" as="geometry">
            <mxRectangle width="595" height="43" as="alternateBounds" />
          </mxGeometry>
        </mxCell>
        <mxCell id="kkjx6y--5YrOob6DHT2B-122" value="Aumentar a agilidade da organização" style="connectable=0;recursiveResize=0;fontStyle=0;align=center;whiteSpace=wrap;html=1;fontSize=16;strokeColor=inherit;" parent="kkjx6y--5YrOob6DHT2B-119" vertex="1">
          <mxGeometry x="889" width="576" height="43" as="geometry">
            <mxRectangle width="576" height="43" as="alternateBounds" />
          </mxGeometry>
        </mxCell>
        <mxCell id="kkjx6y--5YrOob6DHT2B-76" value="" style="shape=tableRow;horizontal=0;startSize=0;swimlaneHead=0;swimlaneBody=0;top=0;left=0;bottom=0;right=0;dropTarget=0;collapsible=0;recursiveResize=0;expand=0;fontStyle=1;fontSize=16;strokeColor=inherit;" parent="kkjx6y--5YrOob6DHT2B-16" vertex="1">
          <mxGeometry y="333" width="1465" height="40" as="geometry" />
        </mxCell>
        <mxCell id="kkjx6y--5YrOob6DHT2B-248" value="5" style="connectable=0;recursiveResize=0;whiteSpace=wrap;html=1;fontSize=16;strokeColor=inherit;" parent="kkjx6y--5YrOob6DHT2B-76" vertex="1">
          <mxGeometry width="97" height="40" as="geometry">
            <mxRectangle width="97" height="40" as="alternateBounds" />
          </mxGeometry>
        </mxCell>
        <mxCell id="kkjx6y--5YrOob6DHT2B-77" value="Admin / Gestor" style="connectable=0;recursiveResize=0;whiteSpace=wrap;html=1;fontSize=16;strokeColor=inherit;" parent="kkjx6y--5YrOob6DHT2B-76" vertex="1">
          <mxGeometry x="97" width="197" height="40" as="geometry">
            <mxRectangle width="197" height="40" as="alternateBounds" />
          </mxGeometry>
        </mxCell>
        <mxCell id="kkjx6y--5YrOob6DHT2B-78" value="Gerenciar instrumentos" style="connectable=0;recursiveResize=0;whiteSpace=wrap;html=1;fontSize=16;strokeColor=inherit;" parent="kkjx6y--5YrOob6DHT2B-76" vertex="1">
          <mxGeometry x="294" width="595" height="40" as="geometry">
            <mxRectangle width="595" height="40" as="alternateBounds" />
          </mxGeometry>
        </mxCell>
        <mxCell id="kkjx6y--5YrOob6DHT2B-79" value="Para possuir controle do inventário de modo mais ágil" style="connectable=0;recursiveResize=0;whiteSpace=wrap;html=1;fontSize=16;strokeColor=inherit;" parent="kkjx6y--5YrOob6DHT2B-76" vertex="1">
          <mxGeometry x="889" width="576" height="40" as="geometry">
            <mxRectangle width="576" height="40" as="alternateBounds" />
          </mxGeometry>
        </mxCell>
        <mxCell id="kkjx6y--5YrOob6DHT2B-127" value="" style="shape=tableRow;horizontal=0;startSize=0;swimlaneHead=0;swimlaneBody=0;top=0;left=0;bottom=0;right=0;dropTarget=0;collapsible=0;recursiveResize=0;expand=0;fontStyle=0;fontSize=16;strokeColor=inherit;" parent="kkjx6y--5YrOob6DHT2B-16" vertex="1">
          <mxGeometry y="373" width="1465" height="42" as="geometry" />
        </mxCell>
        <mxCell id="kkjx6y--5YrOob6DHT2B-249" value="6" style="connectable=0;recursiveResize=0;fontStyle=0;align=center;whiteSpace=wrap;html=1;fontSize=16;strokeColor=inherit;" parent="kkjx6y--5YrOob6DHT2B-127" vertex="1">
          <mxGeometry width="97" height="42" as="geometry">
            <mxRectangle width="97" height="42" as="alternateBounds" />
          </mxGeometry>
        </mxCell>
        <mxCell id="kkjx6y--5YrOob6DHT2B-128" value="Admin / Gestor" style="connectable=0;recursiveResize=0;fontStyle=0;align=center;whiteSpace=wrap;html=1;fontSize=16;strokeColor=inherit;" parent="kkjx6y--5YrOob6DHT2B-127" vertex="1">
          <mxGeometry x="97" width="197" height="42" as="geometry">
            <mxRectangle width="197" height="42" as="alternateBounds" />
          </mxGeometry>
        </mxCell>
        <mxCell id="kkjx6y--5YrOob6DHT2B-129" value="Registrar empréstimos" style="connectable=0;recursiveResize=0;fontStyle=0;align=center;whiteSpace=wrap;html=1;fontSize=16;strokeColor=inherit;" parent="kkjx6y--5YrOob6DHT2B-127" vertex="1">
          <mxGeometry x="294" width="595" height="42" as="geometry">
            <mxRectangle width="595" height="42" as="alternateBounds" />
          </mxGeometry>
        </mxCell>
        <mxCell id="kkjx6y--5YrOob6DHT2B-130" value="Para controlar quem está com o instrumento" style="connectable=0;recursiveResize=0;fontStyle=0;align=center;whiteSpace=wrap;html=1;fontSize=16;strokeColor=inherit;" parent="kkjx6y--5YrOob6DHT2B-127" vertex="1">
          <mxGeometry x="889" width="576" height="42" as="geometry">
            <mxRectangle width="576" height="42" as="alternateBounds" />
          </mxGeometry>
        </mxCell>
        <mxCell id="kkjx6y--5YrOob6DHT2B-80" value="" style="shape=tableRow;horizontal=0;startSize=0;swimlaneHead=0;swimlaneBody=0;top=0;left=0;bottom=0;right=0;dropTarget=0;collapsible=0;recursiveResize=0;expand=0;fontStyle=1;fontSize=16;strokeColor=inherit;" parent="kkjx6y--5YrOob6DHT2B-16" vertex="1">
          <mxGeometry y="415" width="1465" height="39" as="geometry" />
        </mxCell>
        <mxCell id="kkjx6y--5YrOob6DHT2B-250" value="7" style="connectable=0;recursiveResize=0;whiteSpace=wrap;html=1;fontSize=16;strokeColor=inherit;" parent="kkjx6y--5YrOob6DHT2B-80" vertex="1">
          <mxGeometry width="97" height="39" as="geometry">
            <mxRectangle width="97" height="39" as="alternateBounds" />
          </mxGeometry>
        </mxCell>
        <mxCell id="kkjx6y--5YrOob6DHT2B-81" value="Admin / Gestor" style="connectable=0;recursiveResize=0;whiteSpace=wrap;html=1;fontSize=16;strokeColor=inherit;" parent="kkjx6y--5YrOob6DHT2B-80" vertex="1">
          <mxGeometry x="97" width="197" height="39" as="geometry">
            <mxRectangle width="197" height="39" as="alternateBounds" />
          </mxGeometry>
        </mxCell>
        <mxCell id="kkjx6y--5YrOob6DHT2B-82" value="Registrar dados de contribuições" style="connectable=0;recursiveResize=0;whiteSpace=wrap;html=1;fontSize=16;strokeColor=inherit;" parent="kkjx6y--5YrOob6DHT2B-80" vertex="1">
          <mxGeometry x="294" width="595" height="39" as="geometry">
            <mxRectangle width="595" height="39" as="alternateBounds" />
          </mxGeometry>
        </mxCell>
        <mxCell id="kkjx6y--5YrOob6DHT2B-83" value="Para ter maior controle das finanças" style="connectable=0;recursiveResize=0;whiteSpace=wrap;html=1;fontSize=16;strokeColor=inherit;" parent="kkjx6y--5YrOob6DHT2B-80" vertex="1">
          <mxGeometry x="889" width="576" height="39" as="geometry">
            <mxRectangle width="576" height="39" as="alternateBounds" />
          </mxGeometry>
        </mxCell>
        <mxCell id="kkjx6y--5YrOob6DHT2B-123" value="" style="shape=tableRow;horizontal=0;startSize=0;swimlaneHead=0;swimlaneBody=0;top=0;left=0;bottom=0;right=0;dropTarget=0;collapsible=0;recursiveResize=0;expand=0;fontStyle=0;fontSize=16;strokeColor=inherit;" parent="kkjx6y--5YrOob6DHT2B-16" vertex="1">
          <mxGeometry y="454" width="1465" height="41" as="geometry" />
        </mxCell>
        <mxCell id="kkjx6y--5YrOob6DHT2B-251" value="8" style="connectable=0;recursiveResize=0;fontStyle=0;align=center;whiteSpace=wrap;html=1;fontSize=16;strokeColor=inherit;" parent="kkjx6y--5YrOob6DHT2B-123" vertex="1">
          <mxGeometry width="97" height="41" as="geometry">
            <mxRectangle width="97" height="41" as="alternateBounds" />
          </mxGeometry>
        </mxCell>
        <mxCell id="kkjx6y--5YrOob6DHT2B-124" value="Admin / Gestor" style="connectable=0;recursiveResize=0;fontStyle=0;align=center;whiteSpace=wrap;html=1;fontSize=16;strokeColor=inherit;" parent="kkjx6y--5YrOob6DHT2B-123" vertex="1">
          <mxGeometry x="97" width="197" height="41" as="geometry">
            <mxRectangle width="197" height="41" as="alternateBounds" />
          </mxGeometry>
        </mxCell>
        <mxCell id="kkjx6y--5YrOob6DHT2B-125" value="Buscar dados de alunos" style="connectable=0;recursiveResize=0;fontStyle=0;align=center;whiteSpace=wrap;html=1;fontSize=16;strokeColor=inherit;" parent="kkjx6y--5YrOob6DHT2B-123" vertex="1">
          <mxGeometry x="294" width="595" height="41" as="geometry">
            <mxRectangle width="595" height="41" as="alternateBounds" />
          </mxGeometry>
        </mxCell>
        <mxCell id="kkjx6y--5YrOob6DHT2B-126" value="Aumentar a agilidade e organização" style="connectable=0;recursiveResize=0;fontStyle=0;align=center;whiteSpace=wrap;html=1;fontSize=16;strokeColor=inherit;" parent="kkjx6y--5YrOob6DHT2B-123" vertex="1">
          <mxGeometry x="889" width="576" height="41" as="geometry">
            <mxRectangle width="576" height="41" as="alternateBounds" />
          </mxGeometry>
        </mxCell>
        <mxCell id="kkjx6y--5YrOob6DHT2B-84" value="" style="shape=tableRow;horizontal=0;startSize=0;swimlaneHead=0;swimlaneBody=0;top=0;left=0;bottom=0;right=0;dropTarget=0;collapsible=0;recursiveResize=0;expand=0;fontStyle=1;fontSize=16;strokeColor=inherit;" parent="kkjx6y--5YrOob6DHT2B-16" vertex="1">
          <mxGeometry y="495" width="1465" height="39" as="geometry" />
        </mxCell>
        <mxCell id="kkjx6y--5YrOob6DHT2B-252" value="9" style="connectable=0;recursiveResize=0;whiteSpace=wrap;html=1;fontSize=16;strokeColor=inherit;" parent="kkjx6y--5YrOob6DHT2B-84" vertex="1">
          <mxGeometry width="97" height="39" as="geometry">
            <mxRectangle width="97" height="39" as="alternateBounds" />
          </mxGeometry>
        </mxCell>
        <mxCell id="kkjx6y--5YrOob6DHT2B-85" value="Admin / Gestor" style="connectable=0;recursiveResize=0;whiteSpace=wrap;html=1;fontSize=16;strokeColor=inherit;" parent="kkjx6y--5YrOob6DHT2B-84" vertex="1">
          <mxGeometry x="97" width="197" height="39" as="geometry">
            <mxRectangle width="197" height="39" as="alternateBounds" />
          </mxGeometry>
        </mxCell>
        <mxCell id="kkjx6y--5YrOob6DHT2B-86" value="Gerenciar Classes de alunos e professores de modo virtual" style="connectable=0;recursiveResize=0;whiteSpace=wrap;html=1;fontSize=16;strokeColor=inherit;" parent="kkjx6y--5YrOob6DHT2B-84" vertex="1">
          <mxGeometry x="294" width="595" height="39" as="geometry">
            <mxRectangle width="595" height="39" as="alternateBounds" />
          </mxGeometry>
        </mxCell>
        <mxCell id="kkjx6y--5YrOob6DHT2B-87" value="Aumentar a agilidade e organização, possibilitando maior planejamento" style="connectable=0;recursiveResize=0;whiteSpace=wrap;html=1;fontSize=16;strokeColor=inherit;" parent="kkjx6y--5YrOob6DHT2B-84" vertex="1">
          <mxGeometry x="889" width="576" height="39" as="geometry">
            <mxRectangle width="576" height="39" as="alternateBounds" />
          </mxGeometry>
        </mxCell>
        <mxCell id="kkjx6y--5YrOob6DHT2B-269" style="shape=tableRow;horizontal=0;startSize=0;swimlaneHead=0;swimlaneBody=0;top=0;left=0;bottom=0;right=0;dropTarget=0;collapsible=0;recursiveResize=0;expand=0;fontStyle=1;fontSize=16;strokeColor=inherit;" parent="kkjx6y--5YrOob6DHT2B-16" vertex="1">
          <mxGeometry y="534" width="1465" height="39" as="geometry" />
        </mxCell>
        <mxCell id="kkjx6y--5YrOob6DHT2B-270" value="10" style="connectable=0;recursiveResize=0;whiteSpace=wrap;html=1;fontSize=16;strokeColor=inherit;" parent="kkjx6y--5YrOob6DHT2B-269" vertex="1">
          <mxGeometry width="97" height="39" as="geometry">
            <mxRectangle width="97" height="39" as="alternateBounds" />
          </mxGeometry>
        </mxCell>
        <mxCell id="kkjx6y--5YrOob6DHT2B-271" value="Admin / Gestor" style="connectable=0;recursiveResize=0;whiteSpace=wrap;html=1;fontSize=16;strokeColor=inherit;" parent="kkjx6y--5YrOob6DHT2B-269" vertex="1">
          <mxGeometry x="97" width="197" height="39" as="geometry">
            <mxRectangle width="197" height="39" as="alternateBounds" />
          </mxGeometry>
        </mxCell>
        <mxCell id="kkjx6y--5YrOob6DHT2B-272" value="Ter acesso a relatórios de dados gerenciais" style="connectable=0;recursiveResize=0;whiteSpace=wrap;html=1;fontSize=16;strokeColor=inherit;" parent="kkjx6y--5YrOob6DHT2B-269" vertex="1">
          <mxGeometry x="294" width="595" height="39" as="geometry">
            <mxRectangle width="595" height="39" as="alternateBounds" />
          </mxGeometry>
        </mxCell>
        <mxCell id="kkjx6y--5YrOob6DHT2B-273" value="Para ter uma visão geral da situação da organização" style="connectable=0;recursiveResize=0;whiteSpace=wrap;html=1;fontSize=16;strokeColor=inherit;" parent="kkjx6y--5YrOob6DHT2B-269" vertex="1">
          <mxGeometry x="889" width="576" height="39" as="geometry">
            <mxRectangle width="576" height="39" as="alternateBounds" />
          </mxGeometry>
        </mxCell>
        <mxCell id="kkjx6y--5YrOob6DHT2B-283" value="Coordenador" style="swimlane;fontStyle=0;childLayout=stackLayout;horizontal=1;startSize=26;fillColor=none;horizontalStack=0;resizeParent=1;resizeParentMax=0;resizeLast=0;collapsible=1;marginBottom=0;whiteSpace=wrap;html=1;" parent="1" vertex="1">
          <mxGeometry x="-1467" y="1576" width="140" height="130" as="geometry" />
        </mxCell>
        <mxCell id="kkjx6y--5YrOob6DHT2B-284" value="nome" style="text;strokeColor=none;fillColor=none;align=left;verticalAlign=top;spacingLeft=4;spacingRight=4;overflow=hidden;rotatable=0;points=[[0,0.5],[1,0.5]];portConstraint=eastwest;whiteSpace=wrap;html=1;" parent="kkjx6y--5YrOob6DHT2B-283" vertex="1">
          <mxGeometry y="26" width="140" height="26" as="geometry" />
        </mxCell>
        <mxCell id="kkjx6y--5YrOob6DHT2B-285" value="endereco" style="text;strokeColor=none;fillColor=none;align=left;verticalAlign=top;spacingLeft=4;spacingRight=4;overflow=hidden;rotatable=0;points=[[0,0.5],[1,0.5]];portConstraint=eastwest;whiteSpace=wrap;html=1;" parent="kkjx6y--5YrOob6DHT2B-283" vertex="1">
          <mxGeometry y="52" width="140" height="26" as="geometry" />
        </mxCell>
        <mxCell id="kkjx6y--5YrOob6DHT2B-286" value="telefone" style="text;strokeColor=none;fillColor=none;align=left;verticalAlign=top;spacingLeft=4;spacingRight=4;overflow=hidden;rotatable=0;points=[[0,0.5],[1,0.5]];portConstraint=eastwest;whiteSpace=wrap;html=1;" parent="kkjx6y--5YrOob6DHT2B-283" vertex="1">
          <mxGeometry y="78" width="140" height="26" as="geometry" />
        </mxCell>
        <mxCell id="kkjx6y--5YrOob6DHT2B-374" value="email" style="text;strokeColor=none;fillColor=none;align=left;verticalAlign=top;spacingLeft=4;spacingRight=4;overflow=hidden;rotatable=0;points=[[0,0.5],[1,0.5]];portConstraint=eastwest;whiteSpace=wrap;html=1;" parent="kkjx6y--5YrOob6DHT2B-283" vertex="1">
          <mxGeometry y="104" width="140" height="26" as="geometry" />
        </mxCell>
        <mxCell id="kkjx6y--5YrOob6DHT2B-337" style="edgeStyle=orthogonalEdgeStyle;rounded=0;orthogonalLoop=1;jettySize=auto;html=1;exitX=0.5;exitY=0;exitDx=0;exitDy=0;endArrow=none;endFill=0;" parent="1" source="kkjx6y--5YrOob6DHT2B-287" target="kkjx6y--5YrOob6DHT2B-308" edge="1">
          <mxGeometry relative="1" as="geometry" />
        </mxCell>
        <mxCell id="kkjx6y--5YrOob6DHT2B-338" value="Realiza um" style="edgeLabel;html=1;align=center;verticalAlign=middle;resizable=0;points=[];" parent="kkjx6y--5YrOob6DHT2B-337" vertex="1" connectable="0">
          <mxGeometry x="-0.1781" y="-1" relative="1" as="geometry">
            <mxPoint x="-78" y="-18" as="offset" />
          </mxGeometry>
        </mxCell>
        <mxCell id="kkjx6y--5YrOob6DHT2B-341" value="1" style="edgeLabel;html=1;align=center;verticalAlign=middle;resizable=0;points=[];" parent="kkjx6y--5YrOob6DHT2B-337" vertex="1" connectable="0">
          <mxGeometry x="-0.9285" y="2" relative="1" as="geometry">
            <mxPoint x="-12" as="offset" />
          </mxGeometry>
        </mxCell>
        <mxCell id="kkjx6y--5YrOob6DHT2B-342" value="1" style="edgeLabel;html=1;align=center;verticalAlign=middle;resizable=0;points=[];" parent="kkjx6y--5YrOob6DHT2B-337" vertex="1" connectable="0">
          <mxGeometry x="0.9507" relative="1" as="geometry">
            <mxPoint y="-11" as="offset" />
          </mxGeometry>
        </mxCell>
        <mxCell id="kkjx6y--5YrOob6DHT2B-287" value="Aluno" style="swimlane;fontStyle=0;childLayout=stackLayout;horizontal=1;startSize=26;fillColor=none;horizontalStack=0;resizeParent=1;resizeParentMax=0;resizeLast=0;collapsible=1;marginBottom=0;whiteSpace=wrap;html=1;" parent="1" vertex="1">
          <mxGeometry x="-1769" y="1273" width="140" height="182" as="geometry" />
        </mxCell>
        <mxCell id="kkjx6y--5YrOob6DHT2B-288" value="nome" style="text;strokeColor=none;fillColor=none;align=left;verticalAlign=top;spacingLeft=4;spacingRight=4;overflow=hidden;rotatable=0;points=[[0,0.5],[1,0.5]];portConstraint=eastwest;whiteSpace=wrap;html=1;" parent="kkjx6y--5YrOob6DHT2B-287" vertex="1">
          <mxGeometry y="26" width="140" height="26" as="geometry" />
        </mxCell>
        <mxCell id="kkjx6y--5YrOob6DHT2B-289" value="dataNascimento" style="text;strokeColor=none;fillColor=none;align=left;verticalAlign=top;spacingLeft=4;spacingRight=4;overflow=hidden;rotatable=0;points=[[0,0.5],[1,0.5]];portConstraint=eastwest;whiteSpace=wrap;html=1;" parent="kkjx6y--5YrOob6DHT2B-287" vertex="1">
          <mxGeometry y="52" width="140" height="26" as="geometry" />
        </mxCell>
        <mxCell id="kkjx6y--5YrOob6DHT2B-321" value="endereco" style="text;strokeColor=none;fillColor=none;align=left;verticalAlign=top;spacingLeft=4;spacingRight=4;overflow=hidden;rotatable=0;points=[[0,0.5],[1,0.5]];portConstraint=eastwest;whiteSpace=wrap;html=1;" parent="kkjx6y--5YrOob6DHT2B-287" vertex="1">
          <mxGeometry y="78" width="140" height="26" as="geometry" />
        </mxCell>
        <mxCell id="kkjx6y--5YrOob6DHT2B-389" value="telefone&amp;nbsp;" style="text;strokeColor=none;fillColor=none;align=left;verticalAlign=top;spacingLeft=4;spacingRight=4;overflow=hidden;rotatable=0;points=[[0,0.5],[1,0.5]];portConstraint=eastwest;whiteSpace=wrap;html=1;" parent="kkjx6y--5YrOob6DHT2B-287" vertex="1">
          <mxGeometry y="104" width="140" height="26" as="geometry" />
        </mxCell>
        <mxCell id="kkjx6y--5YrOob6DHT2B-388" value="email" style="text;strokeColor=none;fillColor=none;align=left;verticalAlign=top;spacingLeft=4;spacingRight=4;overflow=hidden;rotatable=0;points=[[0,0.5],[1,0.5]];portConstraint=eastwest;whiteSpace=wrap;html=1;" parent="kkjx6y--5YrOob6DHT2B-287" vertex="1">
          <mxGeometry y="130" width="140" height="26" as="geometry" />
        </mxCell>
        <mxCell id="kkjx6y--5YrOob6DHT2B-290" value="responsavel" style="text;strokeColor=none;fillColor=none;align=left;verticalAlign=top;spacingLeft=4;spacingRight=4;overflow=hidden;rotatable=0;points=[[0,0.5],[1,0.5]];portConstraint=eastwest;whiteSpace=wrap;html=1;" parent="kkjx6y--5YrOob6DHT2B-287" vertex="1">
          <mxGeometry y="156" width="140" height="26" as="geometry" />
        </mxCell>
        <mxCell id="kkjx6y--5YrOob6DHT2B-291" value="Unidade" style="swimlane;fontStyle=0;childLayout=stackLayout;horizontal=1;startSize=26;fillColor=none;horizontalStack=0;resizeParent=1;resizeParentMax=0;resizeLast=0;collapsible=1;marginBottom=0;whiteSpace=wrap;html=1;" parent="1" vertex="1">
          <mxGeometry x="-1767" y="1784" width="140" height="104" as="geometry" />
        </mxCell>
        <mxCell id="kkjx6y--5YrOob6DHT2B-292" value="nome" style="text;strokeColor=none;fillColor=none;align=left;verticalAlign=top;spacingLeft=4;spacingRight=4;overflow=hidden;rotatable=0;points=[[0,0.5],[1,0.5]];portConstraint=eastwest;whiteSpace=wrap;html=1;" parent="kkjx6y--5YrOob6DHT2B-291" vertex="1">
          <mxGeometry y="26" width="140" height="26" as="geometry" />
        </mxCell>
        <mxCell id="kkjx6y--5YrOob6DHT2B-293" value="endereco" style="text;strokeColor=none;fillColor=none;align=left;verticalAlign=top;spacingLeft=4;spacingRight=4;overflow=hidden;rotatable=0;points=[[0,0.5],[1,0.5]];portConstraint=eastwest;whiteSpace=wrap;html=1;" parent="kkjx6y--5YrOob6DHT2B-291" vertex="1">
          <mxGeometry y="52" width="140" height="26" as="geometry" />
        </mxCell>
        <mxCell id="kkjx6y--5YrOob6DHT2B-294" value="telefone" style="text;strokeColor=none;fillColor=none;align=left;verticalAlign=top;spacingLeft=4;spacingRight=4;overflow=hidden;rotatable=0;points=[[0,0.5],[1,0.5]];portConstraint=eastwest;whiteSpace=wrap;html=1;" parent="kkjx6y--5YrOob6DHT2B-291" vertex="1">
          <mxGeometry y="78" width="140" height="26" as="geometry" />
        </mxCell>
        <mxCell id="kkjx6y--5YrOob6DHT2B-325" style="edgeStyle=orthogonalEdgeStyle;rounded=0;orthogonalLoop=1;jettySize=auto;html=1;exitX=0.5;exitY=0;exitDx=0;exitDy=0;entryX=0.497;entryY=0.989;entryDx=0;entryDy=0;entryPerimeter=0;startArrow=none;startFill=0;endArrow=none;endFill=0;" parent="1" source="kkjx6y--5YrOob6DHT2B-295" target="kkjx6y--5YrOob6DHT2B-290" edge="1">
          <mxGeometry relative="1" as="geometry" />
        </mxCell>
        <mxCell id="kkjx6y--5YrOob6DHT2B-326" value="Matriculado na&amp;nbsp;" style="edgeLabel;html=1;align=center;verticalAlign=middle;resizable=0;points=[];" parent="kkjx6y--5YrOob6DHT2B-325" vertex="1" connectable="0">
          <mxGeometry x="0.0504" y="1" relative="1" as="geometry">
            <mxPoint x="-45" y="3" as="offset" />
          </mxGeometry>
        </mxCell>
        <mxCell id="kkjx6y--5YrOob6DHT2B-327" value="1 *" style="edgeLabel;html=1;align=center;verticalAlign=middle;resizable=0;points=[];" parent="kkjx6y--5YrOob6DHT2B-325" vertex="1" connectable="0">
          <mxGeometry x="0.856" y="1" relative="1" as="geometry">
            <mxPoint x="-13" y="6" as="offset" />
          </mxGeometry>
        </mxCell>
        <mxCell id="kkjx6y--5YrOob6DHT2B-328" value="1" style="edgeLabel;html=1;align=center;verticalAlign=middle;resizable=0;points=[];" parent="kkjx6y--5YrOob6DHT2B-325" vertex="1" connectable="0">
          <mxGeometry x="-0.821" y="1" relative="1" as="geometry">
            <mxPoint x="-10" as="offset" />
          </mxGeometry>
        </mxCell>
        <mxCell id="kkjx6y--5YrOob6DHT2B-295" value="Turma" style="swimlane;fontStyle=0;childLayout=stackLayout;horizontal=1;startSize=26;fillColor=none;horizontalStack=0;resizeParent=1;resizeParentMax=0;resizeLast=0;collapsible=1;marginBottom=0;whiteSpace=wrap;html=1;" parent="1" vertex="1">
          <mxGeometry x="-1769" y="1576" width="140" height="130" as="geometry" />
        </mxCell>
        <mxCell id="kkjx6y--5YrOob6DHT2B-296" value="nome" style="text;strokeColor=none;fillColor=none;align=left;verticalAlign=top;spacingLeft=4;spacingRight=4;overflow=hidden;rotatable=0;points=[[0,0.5],[1,0.5]];portConstraint=eastwest;whiteSpace=wrap;html=1;" parent="kkjx6y--5YrOob6DHT2B-295" vertex="1">
          <mxGeometry y="26" width="140" height="26" as="geometry" />
        </mxCell>
        <mxCell id="kkjx6y--5YrOob6DHT2B-297" value="horario" style="text;strokeColor=none;fillColor=none;align=left;verticalAlign=top;spacingLeft=4;spacingRight=4;overflow=hidden;rotatable=0;points=[[0,0.5],[1,0.5]];portConstraint=eastwest;whiteSpace=wrap;html=1;" parent="kkjx6y--5YrOob6DHT2B-295" vertex="1">
          <mxGeometry y="52" width="140" height="26" as="geometry" />
        </mxCell>
        <mxCell id="kkjx6y--5YrOob6DHT2B-298" value="instrumento" style="text;strokeColor=none;fillColor=none;align=left;verticalAlign=top;spacingLeft=4;spacingRight=4;overflow=hidden;rotatable=0;points=[[0,0.5],[1,0.5]];portConstraint=eastwest;whiteSpace=wrap;html=1;" parent="kkjx6y--5YrOob6DHT2B-295" vertex="1">
          <mxGeometry y="78" width="140" height="26" as="geometry" />
        </mxCell>
        <mxCell id="kkjx6y--5YrOob6DHT2B-375" value="nivel" style="text;strokeColor=none;fillColor=none;align=left;verticalAlign=top;spacingLeft=4;spacingRight=4;overflow=hidden;rotatable=0;points=[[0,0.5],[1,0.5]];portConstraint=eastwest;whiteSpace=wrap;html=1;" parent="kkjx6y--5YrOob6DHT2B-295" vertex="1">
          <mxGeometry y="104" width="140" height="26" as="geometry" />
        </mxCell>
        <mxCell id="kkjx6y--5YrOob6DHT2B-351" style="edgeStyle=orthogonalEdgeStyle;rounded=0;orthogonalLoop=1;jettySize=auto;html=1;exitX=0.5;exitY=0;exitDx=0;exitDy=0;endArrow=none;endFill=0;entryX=0.511;entryY=1.022;entryDx=0;entryDy=0;entryPerimeter=0;" parent="1" source="kkjx6y--5YrOob6DHT2B-299" target="kkjx6y--5YrOob6DHT2B-372" edge="1">
          <mxGeometry relative="1" as="geometry" />
        </mxCell>
        <mxCell id="kkjx6y--5YrOob6DHT2B-352" value="Ensina um" style="edgeLabel;html=1;align=center;verticalAlign=middle;resizable=0;points=[];" parent="kkjx6y--5YrOob6DHT2B-351" vertex="1" connectable="0">
          <mxGeometry x="0.1442" y="-1" relative="1" as="geometry">
            <mxPoint x="-38" y="11" as="offset" />
          </mxGeometry>
        </mxCell>
        <mxCell id="kkjx6y--5YrOob6DHT2B-353" value="1 *" style="edgeLabel;html=1;align=center;verticalAlign=middle;resizable=0;points=[];" parent="kkjx6y--5YrOob6DHT2B-351" vertex="1" connectable="0">
          <mxGeometry x="0.8139" y="-2" relative="1" as="geometry">
            <mxPoint x="-14" y="-1" as="offset" />
          </mxGeometry>
        </mxCell>
        <mxCell id="kkjx6y--5YrOob6DHT2B-355" value="0 *" style="edgeLabel;html=1;align=center;verticalAlign=middle;resizable=0;points=[];" parent="kkjx6y--5YrOob6DHT2B-351" vertex="1" connectable="0">
          <mxGeometry x="-0.84" y="1" relative="1" as="geometry">
            <mxPoint x="-9" as="offset" />
          </mxGeometry>
        </mxCell>
        <mxCell id="kkjx6y--5YrOob6DHT2B-299" value="Professor" style="swimlane;fontStyle=0;childLayout=stackLayout;horizontal=1;startSize=26;fillColor=none;horizontalStack=0;resizeParent=1;resizeParentMax=0;resizeLast=0;collapsible=1;marginBottom=0;whiteSpace=wrap;html=1;" parent="1" vertex="1">
          <mxGeometry x="-2031" y="1576" width="140" height="182" as="geometry" />
        </mxCell>
        <mxCell id="kkjx6y--5YrOob6DHT2B-300" value="nome" style="text;strokeColor=none;fillColor=none;align=left;verticalAlign=top;spacingLeft=4;spacingRight=4;overflow=hidden;rotatable=0;points=[[0,0.5],[1,0.5]];portConstraint=eastwest;whiteSpace=wrap;html=1;" parent="kkjx6y--5YrOob6DHT2B-299" vertex="1">
          <mxGeometry y="26" width="140" height="26" as="geometry" />
        </mxCell>
        <mxCell id="kkjx6y--5YrOob6DHT2B-385" value="dataNascimento" style="text;strokeColor=none;fillColor=none;align=left;verticalAlign=top;spacingLeft=4;spacingRight=4;overflow=hidden;rotatable=0;points=[[0,0.5],[1,0.5]];portConstraint=eastwest;whiteSpace=wrap;html=1;" parent="kkjx6y--5YrOob6DHT2B-299" vertex="1">
          <mxGeometry y="52" width="140" height="26" as="geometry" />
        </mxCell>
        <mxCell id="kkjx6y--5YrOob6DHT2B-301" value="endereco" style="text;strokeColor=none;fillColor=none;align=left;verticalAlign=top;spacingLeft=4;spacingRight=4;overflow=hidden;rotatable=0;points=[[0,0.5],[1,0.5]];portConstraint=eastwest;whiteSpace=wrap;html=1;" parent="kkjx6y--5YrOob6DHT2B-299" vertex="1">
          <mxGeometry y="78" width="140" height="26" as="geometry" />
        </mxCell>
        <mxCell id="kkjx6y--5YrOob6DHT2B-376" value="telefone" style="text;strokeColor=none;fillColor=none;align=left;verticalAlign=top;spacingLeft=4;spacingRight=4;overflow=hidden;rotatable=0;points=[[0,0.5],[1,0.5]];portConstraint=eastwest;whiteSpace=wrap;html=1;" parent="kkjx6y--5YrOob6DHT2B-299" vertex="1">
          <mxGeometry y="104" width="140" height="26" as="geometry" />
        </mxCell>
        <mxCell id="kkjx6y--5YrOob6DHT2B-377" value="email" style="text;strokeColor=none;fillColor=none;align=left;verticalAlign=top;spacingLeft=4;spacingRight=4;overflow=hidden;rotatable=0;points=[[0,0.5],[1,0.5]];portConstraint=eastwest;whiteSpace=wrap;html=1;" parent="kkjx6y--5YrOob6DHT2B-299" vertex="1">
          <mxGeometry y="130" width="140" height="26" as="geometry" />
        </mxCell>
        <mxCell id="kkjx6y--5YrOob6DHT2B-378" value="habilidades" style="text;strokeColor=none;fillColor=none;align=left;verticalAlign=top;spacingLeft=4;spacingRight=4;overflow=hidden;rotatable=0;points=[[0,0.5],[1,0.5]];portConstraint=eastwest;whiteSpace=wrap;html=1;" parent="kkjx6y--5YrOob6DHT2B-299" vertex="1">
          <mxGeometry y="156" width="140" height="26" as="geometry" />
        </mxCell>
        <mxCell id="kkjx6y--5YrOob6DHT2B-343" style="edgeStyle=orthogonalEdgeStyle;rounded=0;orthogonalLoop=1;jettySize=auto;html=1;exitX=0.5;exitY=0;exitDx=0;exitDy=0;entryX=0.494;entryY=1.03;entryDx=0;entryDy=0;entryPerimeter=0;endArrow=none;endFill=0;" parent="1" source="kkjx6y--5YrOob6DHT2B-303" edge="1">
          <mxGeometry relative="1" as="geometry">
            <mxPoint x="-1963.8400000000001" y="1192.28" as="targetPoint" />
          </mxGeometry>
        </mxCell>
        <mxCell id="kkjx6y--5YrOob6DHT2B-344" value="Contem um" style="edgeLabel;html=1;align=center;verticalAlign=middle;resizable=0;points=[];" parent="kkjx6y--5YrOob6DHT2B-343" vertex="1" connectable="0">
          <mxGeometry x="-0.0096" y="-1" relative="1" as="geometry">
            <mxPoint x="-38" y="-1" as="offset" />
          </mxGeometry>
        </mxCell>
        <mxCell id="kkjx6y--5YrOob6DHT2B-345" value="1" style="edgeLabel;html=1;align=center;verticalAlign=middle;resizable=0;points=[];" parent="kkjx6y--5YrOob6DHT2B-343" vertex="1" connectable="0">
          <mxGeometry x="-0.6482" y="-1" relative="1" as="geometry">
            <mxPoint x="-12" y="9" as="offset" />
          </mxGeometry>
        </mxCell>
        <mxCell id="kkjx6y--5YrOob6DHT2B-346" value="1" style="edgeLabel;html=1;align=center;verticalAlign=middle;resizable=0;points=[];" parent="kkjx6y--5YrOob6DHT2B-343" vertex="1" connectable="0">
          <mxGeometry x="0.7982" y="-2" relative="1" as="geometry">
            <mxPoint x="-11" y="-3" as="offset" />
          </mxGeometry>
        </mxCell>
        <mxCell id="kkjx6y--5YrOob6DHT2B-303" value="Instrumento" style="swimlane;fontStyle=0;childLayout=stackLayout;horizontal=1;startSize=26;fillColor=none;horizontalStack=0;resizeParent=1;resizeParentMax=0;resizeLast=0;collapsible=1;marginBottom=0;whiteSpace=wrap;html=1;" parent="1" vertex="1">
          <mxGeometry x="-2033" y="1319" width="140" height="156" as="geometry" />
        </mxCell>
        <mxCell id="kkjx6y--5YrOob6DHT2B-304" value="codigo" style="text;strokeColor=none;fillColor=none;align=left;verticalAlign=top;spacingLeft=4;spacingRight=4;overflow=hidden;rotatable=0;points=[[0,0.5],[1,0.5]];portConstraint=eastwest;whiteSpace=wrap;html=1;" parent="kkjx6y--5YrOob6DHT2B-303" vertex="1">
          <mxGeometry y="26" width="140" height="26" as="geometry" />
        </mxCell>
        <mxCell id="kkjx6y--5YrOob6DHT2B-305" value="marca" style="text;strokeColor=none;fillColor=none;align=left;verticalAlign=top;spacingLeft=4;spacingRight=4;overflow=hidden;rotatable=0;points=[[0,0.5],[1,0.5]];portConstraint=eastwest;whiteSpace=wrap;html=1;" parent="kkjx6y--5YrOob6DHT2B-303" vertex="1">
          <mxGeometry y="52" width="140" height="26" as="geometry" />
        </mxCell>
        <mxCell id="kkjx6y--5YrOob6DHT2B-306" value="modelo" style="text;strokeColor=none;fillColor=none;align=left;verticalAlign=top;spacingLeft=4;spacingRight=4;overflow=hidden;rotatable=0;points=[[0,0.5],[1,0.5]];portConstraint=eastwest;whiteSpace=wrap;html=1;" parent="kkjx6y--5YrOob6DHT2B-303" vertex="1">
          <mxGeometry y="78" width="140" height="26" as="geometry" />
        </mxCell>
        <mxCell id="kkjx6y--5YrOob6DHT2B-373" value="situacao" style="text;strokeColor=none;fillColor=none;align=left;verticalAlign=top;spacingLeft=4;spacingRight=4;overflow=hidden;rotatable=0;points=[[0,0.5],[1,0.5]];portConstraint=eastwest;whiteSpace=wrap;html=1;" parent="kkjx6y--5YrOob6DHT2B-303" vertex="1">
          <mxGeometry y="104" width="140" height="26" as="geometry" />
        </mxCell>
        <mxCell id="kkjx6y--5YrOob6DHT2B-372" value="dataAquisicao" style="text;strokeColor=none;fillColor=none;align=left;verticalAlign=top;spacingLeft=4;spacingRight=4;overflow=hidden;rotatable=0;points=[[0,0.5],[1,0.5]];portConstraint=eastwest;whiteSpace=wrap;html=1;" parent="kkjx6y--5YrOob6DHT2B-303" vertex="1">
          <mxGeometry y="130" width="140" height="26" as="geometry" />
        </mxCell>
        <mxCell id="kkjx6y--5YrOob6DHT2B-307" value="Emprestimo" style="swimlane;fontStyle=0;childLayout=stackLayout;horizontal=1;startSize=26;fillColor=none;horizontalStack=0;resizeParent=1;resizeParentMax=0;resizeLast=0;collapsible=1;marginBottom=0;whiteSpace=wrap;html=1;" parent="1" vertex="1">
          <mxGeometry x="-2033" y="1140" width="140" height="52" as="geometry" />
        </mxCell>
        <mxCell id="kkjx6y--5YrOob6DHT2B-308" value="data" style="text;strokeColor=none;fillColor=none;align=left;verticalAlign=top;spacingLeft=4;spacingRight=4;overflow=hidden;rotatable=0;points=[[0,0.5],[1,0.5]];portConstraint=eastwest;whiteSpace=wrap;html=1;" parent="kkjx6y--5YrOob6DHT2B-307" vertex="1">
          <mxGeometry y="26" width="140" height="26" as="geometry" />
        </mxCell>
        <mxCell id="kkjx6y--5YrOob6DHT2B-312" style="edgeStyle=orthogonalEdgeStyle;rounded=0;orthogonalLoop=1;jettySize=auto;html=1;entryX=0.5;entryY=0;entryDx=0;entryDy=0;endArrow=none;endFill=0;exitX=0.511;exitY=1.038;exitDx=0;exitDy=0;exitPerimeter=0;" parent="1" source="kkjx6y--5YrOob6DHT2B-375" target="kkjx6y--5YrOob6DHT2B-291" edge="1">
          <mxGeometry relative="1" as="geometry">
            <mxPoint x="-1693" y="1706" as="sourcePoint" />
          </mxGeometry>
        </mxCell>
        <mxCell id="kkjx6y--5YrOob6DHT2B-313" value="Composta por" style="edgeLabel;html=1;align=center;verticalAlign=middle;resizable=0;points=[];" parent="kkjx6y--5YrOob6DHT2B-312" vertex="1" connectable="0">
          <mxGeometry x="-0.2351" y="2" relative="1" as="geometry">
            <mxPoint x="-45" y="12" as="offset" />
          </mxGeometry>
        </mxCell>
        <mxCell id="kkjx6y--5YrOob6DHT2B-314" value="1" style="edgeLabel;html=1;align=center;verticalAlign=middle;resizable=0;points=[];" parent="kkjx6y--5YrOob6DHT2B-312" vertex="1" connectable="0">
          <mxGeometry x="0.8705" y="-1" relative="1" as="geometry">
            <mxPoint x="-8" y="-4" as="offset" />
          </mxGeometry>
        </mxCell>
        <mxCell id="kkjx6y--5YrOob6DHT2B-315" value="0 *" style="edgeLabel;html=1;align=center;verticalAlign=middle;resizable=0;points=[];" parent="kkjx6y--5YrOob6DHT2B-312" vertex="1" connectable="0">
          <mxGeometry x="-0.9218" y="1" relative="1" as="geometry">
            <mxPoint x="-12" y="5" as="offset" />
          </mxGeometry>
        </mxCell>
        <mxCell id="kkjx6y--5YrOob6DHT2B-320" style="edgeStyle=orthogonalEdgeStyle;rounded=0;orthogonalLoop=1;jettySize=auto;html=1;exitX=-0.021;exitY=0.269;exitDx=0;exitDy=0;entryX=1;entryY=0.5;entryDx=0;entryDy=0;endArrow=none;endFill=0;exitPerimeter=0;" parent="1" source="kkjx6y--5YrOob6DHT2B-389" target="kkjx6y--5YrOob6DHT2B-305" edge="1">
          <mxGeometry relative="1" as="geometry" />
        </mxCell>
        <mxCell id="kkjx6y--5YrOob6DHT2B-322" value="Aprende um" style="edgeLabel;html=1;align=center;verticalAlign=middle;resizable=0;points=[];" parent="kkjx6y--5YrOob6DHT2B-320" vertex="1" connectable="0">
          <mxGeometry x="0.1975" y="-2" relative="1" as="geometry">
            <mxPoint x="5" y="-10" as="offset" />
          </mxGeometry>
        </mxCell>
        <mxCell id="kkjx6y--5YrOob6DHT2B-323" value="1 *" style="edgeLabel;html=1;align=center;verticalAlign=middle;resizable=0;points=[];" parent="kkjx6y--5YrOob6DHT2B-320" vertex="1" connectable="0">
          <mxGeometry x="-0.8783" relative="1" as="geometry">
            <mxPoint x="-2" y="-11" as="offset" />
          </mxGeometry>
        </mxCell>
        <mxCell id="kkjx6y--5YrOob6DHT2B-324" value="1" style="edgeLabel;html=1;align=center;verticalAlign=middle;resizable=0;points=[];" parent="kkjx6y--5YrOob6DHT2B-320" vertex="1" connectable="0">
          <mxGeometry x="0.8924" relative="1" as="geometry">
            <mxPoint x="-2" y="-10" as="offset" />
          </mxGeometry>
        </mxCell>
        <mxCell id="kkjx6y--5YrOob6DHT2B-329" style="edgeStyle=orthogonalEdgeStyle;rounded=0;orthogonalLoop=1;jettySize=auto;html=1;exitX=0;exitY=0.5;exitDx=0;exitDy=0;entryX=1;entryY=0.5;entryDx=0;entryDy=0;endArrow=none;endFill=0;" parent="1" source="kkjx6y--5YrOob6DHT2B-285" target="kkjx6y--5YrOob6DHT2B-297" edge="1">
          <mxGeometry relative="1" as="geometry" />
        </mxCell>
        <mxCell id="kkjx6y--5YrOob6DHT2B-330" value="Responsável pela" style="edgeLabel;html=1;align=center;verticalAlign=middle;resizable=0;points=[];" parent="kkjx6y--5YrOob6DHT2B-329" vertex="1" connectable="0">
          <mxGeometry x="0.0502" relative="1" as="geometry">
            <mxPoint x="5" y="-13" as="offset" />
          </mxGeometry>
        </mxCell>
        <mxCell id="kkjx6y--5YrOob6DHT2B-331" value="1 *" style="edgeLabel;html=1;align=center;verticalAlign=middle;resizable=0;points=[];" parent="kkjx6y--5YrOob6DHT2B-329" vertex="1" connectable="0">
          <mxGeometry x="0.8389" y="2" relative="1" as="geometry">
            <mxPoint x="-3" y="10" as="offset" />
          </mxGeometry>
        </mxCell>
        <mxCell id="kkjx6y--5YrOob6DHT2B-332" value="1" style="edgeLabel;html=1;align=center;verticalAlign=middle;resizable=0;points=[];" parent="kkjx6y--5YrOob6DHT2B-329" vertex="1" connectable="0">
          <mxGeometry x="-0.8682" y="2" relative="1" as="geometry">
            <mxPoint x="5" y="8" as="offset" />
          </mxGeometry>
        </mxCell>
        <mxCell id="kkjx6y--5YrOob6DHT2B-333" style="edgeStyle=orthogonalEdgeStyle;rounded=0;orthogonalLoop=1;jettySize=auto;html=1;exitX=1;exitY=0.5;exitDx=0;exitDy=0;endArrow=none;endFill=0;" parent="1" source="kkjx6y--5YrOob6DHT2B-293" edge="1">
          <mxGeometry relative="1" as="geometry">
            <mxPoint x="-1396" y="1707" as="targetPoint" />
          </mxGeometry>
        </mxCell>
        <mxCell id="kkjx6y--5YrOob6DHT2B-334" value="Responsável pela" style="edgeLabel;html=1;align=center;verticalAlign=middle;resizable=0;points=[];" parent="kkjx6y--5YrOob6DHT2B-333" vertex="1" connectable="0">
          <mxGeometry x="-0.5043" relative="1" as="geometry">
            <mxPoint x="23" y="-13" as="offset" />
          </mxGeometry>
        </mxCell>
        <mxCell id="kkjx6y--5YrOob6DHT2B-335" value="1 *" style="edgeLabel;html=1;align=center;verticalAlign=middle;resizable=0;points=[];" parent="kkjx6y--5YrOob6DHT2B-333" vertex="1" connectable="0">
          <mxGeometry x="-0.9497" y="2" relative="1" as="geometry">
            <mxPoint x="2" y="-10" as="offset" />
          </mxGeometry>
        </mxCell>
        <mxCell id="kkjx6y--5YrOob6DHT2B-336" value="1" style="edgeLabel;html=1;align=center;verticalAlign=middle;resizable=0;points=[];" parent="kkjx6y--5YrOob6DHT2B-333" vertex="1" connectable="0">
          <mxGeometry x="0.9453" y="-1" relative="1" as="geometry">
            <mxPoint x="-9" as="offset" />
          </mxGeometry>
        </mxCell>
        <mxCell id="kkjx6y--5YrOob6DHT2B-347" style="edgeStyle=orthogonalEdgeStyle;rounded=0;orthogonalLoop=1;jettySize=auto;html=1;exitX=1;exitY=0.5;exitDx=0;exitDy=0;entryX=0;entryY=0.5;entryDx=0;entryDy=0;endArrow=none;endFill=0;" parent="1" source="kkjx6y--5YrOob6DHT2B-385" target="kkjx6y--5YrOob6DHT2B-297" edge="1">
          <mxGeometry relative="1" as="geometry" />
        </mxCell>
        <mxCell id="kkjx6y--5YrOob6DHT2B-348" value="Ensina na" style="edgeLabel;html=1;align=center;verticalAlign=middle;resizable=0;points=[];" parent="kkjx6y--5YrOob6DHT2B-347" vertex="1" connectable="0">
          <mxGeometry x="-0.2002" relative="1" as="geometry">
            <mxPoint x="10" y="-13" as="offset" />
          </mxGeometry>
        </mxCell>
        <mxCell id="kkjx6y--5YrOob6DHT2B-349" value="1 *" style="edgeLabel;html=1;align=center;verticalAlign=middle;resizable=0;points=[];" parent="kkjx6y--5YrOob6DHT2B-347" vertex="1" connectable="0">
          <mxGeometry x="0.8503" relative="1" as="geometry">
            <mxPoint x="-2" y="-11" as="offset" />
          </mxGeometry>
        </mxCell>
        <mxCell id="kkjx6y--5YrOob6DHT2B-350" value="1 *" style="edgeLabel;html=1;align=center;verticalAlign=middle;resizable=0;points=[];" parent="kkjx6y--5YrOob6DHT2B-347" vertex="1" connectable="0">
          <mxGeometry x="-0.9032" y="1" relative="1" as="geometry">
            <mxPoint x="3" y="-9" as="offset" />
          </mxGeometry>
        </mxCell>
        <mxCell id="kkjx6y--5YrOob6DHT2B-357" value="Doação" style="swimlane;fontStyle=0;childLayout=stackLayout;horizontal=1;startSize=26;fillColor=none;horizontalStack=0;resizeParent=1;resizeParentMax=0;resizeLast=0;collapsible=1;marginBottom=0;whiteSpace=wrap;html=1;" parent="1" vertex="1">
          <mxGeometry x="-1463" y="1345" width="140" height="78" as="geometry" />
        </mxCell>
        <mxCell id="kkjx6y--5YrOob6DHT2B-358" value="data" style="text;strokeColor=none;fillColor=none;align=left;verticalAlign=top;spacingLeft=4;spacingRight=4;overflow=hidden;rotatable=0;points=[[0,0.5],[1,0.5]];portConstraint=eastwest;whiteSpace=wrap;html=1;" parent="kkjx6y--5YrOob6DHT2B-357" vertex="1">
          <mxGeometry y="26" width="140" height="26" as="geometry" />
        </mxCell>
        <mxCell id="kkjx6y--5YrOob6DHT2B-359" value="valor" style="text;strokeColor=none;fillColor=none;align=left;verticalAlign=top;spacingLeft=4;spacingRight=4;overflow=hidden;rotatable=0;points=[[0,0.5],[1,0.5]];portConstraint=eastwest;whiteSpace=wrap;html=1;" parent="kkjx6y--5YrOob6DHT2B-357" vertex="1">
          <mxGeometry y="52" width="140" height="26" as="geometry" />
        </mxCell>
        <mxCell id="kkjx6y--5YrOob6DHT2B-364" style="edgeStyle=orthogonalEdgeStyle;rounded=0;orthogonalLoop=1;jettySize=auto;html=1;exitX=0;exitY=0.5;exitDx=0;exitDy=0;entryX=1;entryY=0.5;entryDx=0;entryDy=0;endArrow=none;endFill=0;" parent="1" source="kkjx6y--5YrOob6DHT2B-359" target="kkjx6y--5YrOob6DHT2B-289" edge="1">
          <mxGeometry relative="1" as="geometry">
            <Array as="points">
              <mxPoint x="-1463" y="1384" />
            </Array>
          </mxGeometry>
        </mxCell>
        <mxCell id="kkjx6y--5YrOob6DHT2B-365" value="Faz uma&amp;nbsp;" style="edgeLabel;html=1;align=center;verticalAlign=middle;resizable=0;points=[];" parent="kkjx6y--5YrOob6DHT2B-364" vertex="1" connectable="0">
          <mxGeometry x="0.206" y="-1" relative="1" as="geometry">
            <mxPoint x="17" y="-12" as="offset" />
          </mxGeometry>
        </mxCell>
        <mxCell id="kkjx6y--5YrOob6DHT2B-366" value="0 *" style="edgeLabel;html=1;align=center;verticalAlign=middle;resizable=0;points=[];" parent="kkjx6y--5YrOob6DHT2B-364" vertex="1" connectable="0">
          <mxGeometry x="0.8191" y="-1" relative="1" as="geometry">
            <mxPoint x="11" y="12" as="offset" />
          </mxGeometry>
        </mxCell>
        <mxCell id="kkjx6y--5YrOob6DHT2B-367" value="0 *" style="edgeLabel;html=1;align=center;verticalAlign=middle;resizable=0;points=[];" parent="kkjx6y--5YrOob6DHT2B-364" vertex="1" connectable="0">
          <mxGeometry x="-0.8327" y="1" relative="1" as="geometry">
            <mxPoint x="-12" y="-20" as="offset" />
          </mxGeometry>
        </mxCell>
        <mxCell id="kkjx6y--5YrOob6DHT2B-368" style="edgeStyle=orthogonalEdgeStyle;rounded=0;orthogonalLoop=1;jettySize=auto;html=1;exitX=1;exitY=0.5;exitDx=0;exitDy=0;entryX=0.526;entryY=1.025;entryDx=0;entryDy=0;entryPerimeter=0;startArrow=none;startFill=0;endArrow=none;endFill=0;" parent="1" source="kkjx6y--5YrOob6DHT2B-358" target="kkjx6y--5YrOob6DHT2B-294" edge="1">
          <mxGeometry relative="1" as="geometry">
            <Array as="points">
              <mxPoint x="-1280" y="1384" />
              <mxPoint x="-1280" y="1923" />
              <mxPoint x="-1691" y="1923" />
            </Array>
          </mxGeometry>
        </mxCell>
        <mxCell id="kkjx6y--5YrOob6DHT2B-369" value="Recebe uma" style="edgeLabel;html=1;align=center;verticalAlign=middle;resizable=0;points=[];" parent="kkjx6y--5YrOob6DHT2B-368" vertex="1" connectable="0">
          <mxGeometry x="0.7014" y="1" relative="1" as="geometry">
            <mxPoint x="113" y="-12" as="offset" />
          </mxGeometry>
        </mxCell>
        <mxCell id="kkjx6y--5YrOob6DHT2B-370" value="1 *" style="edgeLabel;html=1;align=center;verticalAlign=middle;resizable=0;points=[];" parent="kkjx6y--5YrOob6DHT2B-368" vertex="1" connectable="0">
          <mxGeometry x="0.9833" y="-2" relative="1" as="geometry">
            <mxPoint x="7" y="-1" as="offset" />
          </mxGeometry>
        </mxCell>
        <mxCell id="kkjx6y--5YrOob6DHT2B-371" value="0 1" style="edgeLabel;html=1;align=center;verticalAlign=middle;resizable=0;points=[];" parent="kkjx6y--5YrOob6DHT2B-368" vertex="1" connectable="0">
          <mxGeometry x="-0.981" y="-2" relative="1" as="geometry">
            <mxPoint x="2" y="-12" as="offset" />
          </mxGeometry>
        </mxCell>
        <mxCell id="3lkJX4Ux8RZ6sUzpUBTn-1" value="Usuário&amp;lt;genérica&amp;gt;" style="swimlane;fontStyle=1;align=center;verticalAlign=top;childLayout=stackLayout;horizontal=1;startSize=26;horizontalStack=0;resizeParent=1;resizeParentMax=0;resizeLast=0;collapsible=1;marginBottom=0;whiteSpace=wrap;html=1;" parent="1" vertex="1">
          <mxGeometry x="171" y="466" width="188" height="219" as="geometry" />
        </mxCell>
        <mxCell id="3lkJX4Ux8RZ6sUzpUBTn-2" value="- id: int&lt;br style=&quot;border-color: var(--border-color);&quot;&gt;- nome: string&lt;br style=&quot;border-color: var(--border-color);&quot;&gt;- email: string&lt;br style=&quot;border-color: var(--border-color);&quot;&gt;- telefone: string&lt;br style=&quot;border-color: var(--border-color);&quot;&gt;- dataNascimento: Date&lt;br style=&quot;border-color: var(--border-color);&quot;&gt;- senha: string&lt;br style=&quot;border-color: var(--border-color);&quot;&gt;- isAtivo: boolean" style="text;strokeColor=none;fillColor=none;align=left;verticalAlign=top;spacingLeft=4;spacingRight=4;overflow=hidden;rotatable=0;points=[[0,0.5],[1,0.5]];portConstraint=eastwest;whiteSpace=wrap;html=1;" parent="3lkJX4Ux8RZ6sUzpUBTn-1" vertex="1">
          <mxGeometry y="26" width="188" height="159" as="geometry" />
        </mxCell>
        <mxCell id="3lkJX4Ux8RZ6sUzpUBTn-3" value="" style="line;strokeWidth=1;fillColor=none;align=left;verticalAlign=middle;spacingTop=-1;spacingLeft=3;spacingRight=3;rotatable=0;labelPosition=right;points=[];portConstraint=eastwest;strokeColor=inherit;" parent="3lkJX4Ux8RZ6sUzpUBTn-1" vertex="1">
          <mxGeometry y="185" width="188" height="8" as="geometry" />
        </mxCell>
        <mxCell id="3lkJX4Ux8RZ6sUzpUBTn-4" value="+ method(type): type" style="text;strokeColor=none;fillColor=none;align=left;verticalAlign=top;spacingLeft=4;spacingRight=4;overflow=hidden;rotatable=0;points=[[0,0.5],[1,0.5]];portConstraint=eastwest;whiteSpace=wrap;html=1;" parent="3lkJX4Ux8RZ6sUzpUBTn-1" vertex="1">
          <mxGeometry y="193" width="188" height="26" as="geometry" />
        </mxCell>
        <mxCell id="3lkJX4Ux8RZ6sUzpUBTn-5" value="Extends" style="endArrow=block;endSize=16;endFill=0;html=1;rounded=0;" parent="1" source="aUn-TZOy5CU89tunpi1s-32" target="3lkJX4Ux8RZ6sUzpUBTn-1" edge="1">
          <mxGeometry width="160" relative="1" as="geometry">
            <mxPoint x="417" y="721" as="sourcePoint" />
            <mxPoint x="577" y="721" as="targetPoint" />
          </mxGeometry>
        </mxCell>
        <mxCell id="3lkJX4Ux8RZ6sUzpUBTn-6" value="Extends" style="endArrow=block;endSize=16;endFill=0;html=1;rounded=0;" parent="1" source="FAkx_wA7FtMw9XLHccDj-11" target="3lkJX4Ux8RZ6sUzpUBTn-1" edge="1">
          <mxGeometry width="160" relative="1" as="geometry">
            <mxPoint x="480" y="447" as="sourcePoint" />
            <mxPoint x="640" y="447" as="targetPoint" />
          </mxGeometry>
        </mxCell>
        <mxCell id="op2QT1IlKd5e1XtfNigK-1" value="&lt;div&gt;export interface CreateAlunoDTO {&lt;/div&gt;&lt;div&gt;&amp;nbsp; &amp;nbsp; nome: string,&lt;/div&gt;&lt;div&gt;&amp;nbsp; &amp;nbsp; email: string,&lt;/div&gt;&lt;div&gt;&amp;nbsp; &amp;nbsp; telefone: string,&lt;/div&gt;&lt;div&gt;&amp;nbsp; &amp;nbsp; dataNascimento: Date,&lt;/div&gt;&lt;div&gt;&amp;nbsp; &amp;nbsp; endereco: Endereco,&lt;/div&gt;&lt;div&gt;&amp;nbsp; &amp;nbsp; dataAdmissao: Date,&lt;/div&gt;&lt;div&gt;&amp;nbsp; &amp;nbsp; nomeResponsavel: string,&lt;/div&gt;&lt;div&gt;&amp;nbsp; &amp;nbsp;&amp;nbsp;&lt;/div&gt;&lt;div&gt;}&lt;/div&gt;" style="rounded=1;whiteSpace=wrap;html=1;" parent="1" vertex="1">
          <mxGeometry x="1241" y="501" width="243" height="220" as="geometry" />
        </mxCell>
        <mxCell id="op2QT1IlKd5e1XtfNigK-2" value="&lt;div&gt;export interface CreateCoordenadorDTO{&lt;/div&gt;&lt;div&gt;&amp;nbsp; &amp;nbsp; nome: string,&lt;/div&gt;&lt;div&gt;&amp;nbsp; &amp;nbsp; email: string,&lt;/div&gt;&lt;div&gt;&amp;nbsp; &amp;nbsp; telefone: string,&lt;/div&gt;&lt;div&gt;&amp;nbsp; &amp;nbsp; dataNascimento: Date,&lt;/div&gt;&lt;div&gt;&amp;nbsp; &amp;nbsp; salario: number;&lt;/div&gt;&lt;div&gt;&amp;nbsp; &amp;nbsp; endereco: Endereco;&lt;/div&gt;&lt;div&gt;&amp;nbsp; &amp;nbsp; instrumentoLeciona: string;&lt;/div&gt;&lt;div&gt;}&lt;/div&gt;" style="rounded=1;whiteSpace=wrap;html=1;" parent="1" vertex="1">
          <mxGeometry x="1556" y="499" width="243" height="220" as="geometry" />
        </mxCell>
        <mxCell id="op2QT1IlKd5e1XtfNigK-3" value="&lt;div&gt;export interface CreateInstrumentoDTO {&lt;/div&gt;&lt;div&gt;&amp;nbsp; &amp;nbsp; nomeInstrumento: string,&lt;/div&gt;&lt;div&gt;&amp;nbsp; &amp;nbsp; marcaInstrumento: string,&lt;/div&gt;&lt;div&gt;&amp;nbsp; &amp;nbsp; estadoConservacaoDoInstrumento: string,&lt;/div&gt;&lt;div&gt;&amp;nbsp; &amp;nbsp; isEmprestado: boolean,&lt;/div&gt;&lt;div&gt;&amp;nbsp; &amp;nbsp; //alunosEmprestimo: ,&lt;/div&gt;&lt;div&gt;&amp;nbsp; &amp;nbsp;&amp;nbsp;&lt;/div&gt;&lt;div&gt;}&lt;/div&gt;" style="rounded=1;whiteSpace=wrap;html=1;" parent="1" vertex="1">
          <mxGeometry x="1241" y="776" width="243" height="220" as="geometry" />
        </mxCell>
        <mxCell id="op2QT1IlKd5e1XtfNigK-4" value="&lt;div&gt;export interface CreateAdminDTO {&lt;/div&gt;&lt;div&gt;&amp;nbsp; &amp;nbsp; nome: string,&lt;/div&gt;&lt;div&gt;&amp;nbsp; &amp;nbsp; email: string,&lt;/div&gt;&lt;div&gt;&amp;nbsp; &amp;nbsp; telefone: string,&lt;/div&gt;&lt;div&gt;&amp;nbsp; &amp;nbsp; dataNascimento: Date,&lt;/div&gt;&lt;div&gt;&amp;nbsp; &amp;nbsp; senha: string,&lt;/div&gt;&lt;div&gt;}&lt;/div&gt;" style="rounded=1;whiteSpace=wrap;html=1;" parent="1" vertex="1">
          <mxGeometry x="1556" y="776" width="243" height="220" as="geometry" />
        </mxCell>
        <mxCell id="op2QT1IlKd5e1XtfNigK-5" value="&lt;div&gt;export interface CreateCursoDTO {&lt;/div&gt;&lt;div&gt;&amp;nbsp; &amp;nbsp; nomeCurso: string,&lt;/div&gt;&lt;div&gt;&amp;nbsp; &amp;nbsp; nomeInstrumento: string,&lt;/div&gt;&lt;div&gt;&amp;nbsp; &amp;nbsp;&amp;nbsp;&lt;/div&gt;&lt;div&gt;}&lt;/div&gt;" style="rounded=1;whiteSpace=wrap;html=1;" parent="1" vertex="1">
          <mxGeometry x="1241" y="1050" width="243" height="220" as="geometry" />
        </mxCell>
        <mxCell id="op2QT1IlKd5e1XtfNigK-6" value="" style="rounded=1;whiteSpace=wrap;html=1;" parent="1" vertex="1">
          <mxGeometry x="1556" y="1048" width="243" height="220" as="geometry" />
        </mxCell>
        <mxCell id="op2QT1IlKd5e1XtfNigK-7" value="&lt;div&gt;export interface CreateAlunoDTO {&lt;/div&gt;&lt;div&gt;&amp;nbsp; &amp;nbsp; nome: string,&lt;/div&gt;&lt;div&gt;&amp;nbsp; &amp;nbsp; email: string,&lt;/div&gt;&lt;div&gt;&amp;nbsp; &amp;nbsp; telefone: string,&lt;/div&gt;&lt;div&gt;&amp;nbsp; &amp;nbsp; dataNascimento: Date,&lt;/div&gt;&lt;div&gt;&amp;nbsp; &amp;nbsp; endereco: Endereco,&lt;/div&gt;&lt;div&gt;&amp;nbsp; &amp;nbsp; dataAdmissao: Date,&lt;/div&gt;&lt;div&gt;&amp;nbsp; &amp;nbsp; nomeResponsavel: string,&lt;/div&gt;&lt;div&gt;&amp;nbsp; &amp;nbsp;&amp;nbsp;&lt;/div&gt;&lt;div&gt;}&lt;/div&gt;" style="rounded=1;whiteSpace=wrap;html=1;" parent="1" vertex="1">
          <mxGeometry x="1241" y="1338" width="243" height="220" as="geometry" />
        </mxCell>
        <mxCell id="op2QT1IlKd5e1XtfNigK-8" value="&lt;div&gt;export interface CreateAlunoDTO {&lt;/div&gt;&lt;div&gt;&amp;nbsp; &amp;nbsp; nome: string,&lt;/div&gt;&lt;div&gt;&amp;nbsp; &amp;nbsp; email: string,&lt;/div&gt;&lt;div&gt;&amp;nbsp; &amp;nbsp; telefone: string,&lt;/div&gt;&lt;div&gt;&amp;nbsp; &amp;nbsp; dataNascimento: Date,&lt;/div&gt;&lt;div&gt;&amp;nbsp; &amp;nbsp; endereco: Endereco,&lt;/div&gt;&lt;div&gt;&amp;nbsp; &amp;nbsp; dataAdmissao: Date,&lt;/div&gt;&lt;div&gt;&amp;nbsp; &amp;nbsp; nomeResponsavel: string,&lt;/div&gt;&lt;div&gt;&amp;nbsp; &amp;nbsp;&amp;nbsp;&lt;/div&gt;&lt;div&gt;}&lt;/div&gt;" style="rounded=1;whiteSpace=wrap;html=1;" parent="1" vertex="1">
          <mxGeometry x="1556" y="1338" width="243" height="220" as="geometry" />
        </mxCell>
        <mxCell id="BG_Dscxmu_ziVbKPON2t-1" value="&amp;nbsp;Gestor&amp;nbsp;" style="shape=umlActor;verticalLabelPosition=bottom;verticalAlign=top;html=1;outlineConnect=0;" parent="1" vertex="1">
          <mxGeometry x="190" y="-308" width="30" height="60" as="geometry" />
        </mxCell>
        <mxCell id="BG_Dscxmu_ziVbKPON2t-2" value="Efetuar CRUD de alunos" style="ellipse;whiteSpace=wrap;html=1;" parent="1" vertex="1">
          <mxGeometry x="304" y="-233" width="140" height="70" as="geometry" />
        </mxCell>
        <mxCell id="BG_Dscxmu_ziVbKPON2t-3" value="" style="endArrow=none;html=1;rounded=0;entryX=0.021;entryY=0.657;entryDx=0;entryDy=0;entryPerimeter=0;" parent="1" source="BG_Dscxmu_ziVbKPON2t-1" target="BG_Dscxmu_ziVbKPON2t-2" edge="1">
          <mxGeometry width="50" height="50" relative="1" as="geometry">
            <mxPoint x="160" y="-103" as="sourcePoint" />
            <mxPoint x="210" y="-153" as="targetPoint" />
          </mxGeometry>
        </mxCell>
        <mxCell id="BG_Dscxmu_ziVbKPON2t-4" value="Efetuar CRUD de instrumentos" style="ellipse;whiteSpace=wrap;html=1;" parent="1" vertex="1">
          <mxGeometry x="283" y="-148" width="140" height="70" as="geometry" />
        </mxCell>
        <mxCell id="BG_Dscxmu_ziVbKPON2t-5" value="" style="endArrow=none;html=1;rounded=0;entryX=0.064;entryY=0.286;entryDx=0;entryDy=0;entryPerimeter=0;" parent="1" source="BG_Dscxmu_ziVbKPON2t-1" target="BG_Dscxmu_ziVbKPON2t-4" edge="1">
          <mxGeometry width="50" height="50" relative="1" as="geometry">
            <mxPoint x="160" y="-103" as="sourcePoint" />
            <mxPoint x="210" y="-153" as="targetPoint" />
          </mxGeometry>
        </mxCell>
        <mxCell id="BG_Dscxmu_ziVbKPON2t-6" value="Gerir empréstimos" style="ellipse;whiteSpace=wrap;html=1;" parent="1" vertex="1">
          <mxGeometry x="-17" y="-230" width="140" height="70" as="geometry" />
        </mxCell>
        <mxCell id="BG_Dscxmu_ziVbKPON2t-7" value="" style="endArrow=none;html=1;rounded=0;" parent="1" source="BG_Dscxmu_ziVbKPON2t-6" target="BG_Dscxmu_ziVbKPON2t-1" edge="1">
          <mxGeometry width="50" height="50" relative="1" as="geometry">
            <mxPoint x="160" y="-103" as="sourcePoint" />
            <mxPoint x="210" y="-153" as="targetPoint" />
          </mxGeometry>
        </mxCell>
        <mxCell id="BG_Dscxmu_ziVbKPON2t-8" value="Gerir contribuições" style="ellipse;whiteSpace=wrap;html=1;" parent="1" vertex="1">
          <mxGeometry x="-47" y="-323" width="140" height="70" as="geometry" />
        </mxCell>
        <mxCell id="BG_Dscxmu_ziVbKPON2t-9" value="" style="endArrow=none;html=1;rounded=0;entryX=0.5;entryY=0.5;entryDx=0;entryDy=0;entryPerimeter=0;exitX=0.571;exitY=0.029;exitDx=0;exitDy=0;exitPerimeter=0;" parent="1" source="BG_Dscxmu_ziVbKPON2t-8" target="BG_Dscxmu_ziVbKPON2t-1" edge="1">
          <mxGeometry width="50" height="50" relative="1" as="geometry">
            <mxPoint x="160" y="-103" as="sourcePoint" />
            <mxPoint x="210" y="-153" as="targetPoint" />
          </mxGeometry>
        </mxCell>
        <mxCell id="BG_Dscxmu_ziVbKPON2t-10" value="Listar Dados de alunos" style="ellipse;whiteSpace=wrap;html=1;" parent="1" vertex="1">
          <mxGeometry x="344" y="-318" width="140" height="70" as="geometry" />
        </mxCell>
        <mxCell id="BG_Dscxmu_ziVbKPON2t-11" value="" style="endArrow=none;html=1;rounded=0;" parent="1" source="BG_Dscxmu_ziVbKPON2t-1" target="BG_Dscxmu_ziVbKPON2t-10" edge="1">
          <mxGeometry width="50" height="50" relative="1" as="geometry">
            <mxPoint x="160" y="-103" as="sourcePoint" />
            <mxPoint x="210" y="-153" as="targetPoint" />
          </mxGeometry>
        </mxCell>
        <mxCell id="BG_Dscxmu_ziVbKPON2t-12" value="Efetuar CRUD de classes de aula" style="ellipse;whiteSpace=wrap;html=1;" parent="1" vertex="1">
          <mxGeometry x="50" y="-150" width="140" height="70" as="geometry" />
        </mxCell>
        <mxCell id="BG_Dscxmu_ziVbKPON2t-13" value="" style="endArrow=none;html=1;rounded=0;exitX=0.5;exitY=0.5;exitDx=0;exitDy=0;exitPerimeter=0;" parent="1" source="BG_Dscxmu_ziVbKPON2t-1" target="BG_Dscxmu_ziVbKPON2t-12" edge="1">
          <mxGeometry width="50" height="50" relative="1" as="geometry">
            <mxPoint x="410" y="77" as="sourcePoint" />
            <mxPoint x="460" y="27" as="targetPoint" />
          </mxGeometry>
        </mxCell>
        <mxCell id="BG_Dscxmu_ziVbKPON2t-14" value="Visualizar Dashboard com Dados Gerais" style="ellipse;whiteSpace=wrap;html=1;" parent="1" vertex="1">
          <mxGeometry x="304" y="-402" width="140" height="70" as="geometry" />
        </mxCell>
        <mxCell id="BG_Dscxmu_ziVbKPON2t-15" value="" style="endArrow=none;html=1;rounded=0;" parent="1" source="BG_Dscxmu_ziVbKPON2t-1" target="BG_Dscxmu_ziVbKPON2t-14" edge="1">
          <mxGeometry width="50" height="50" relative="1" as="geometry">
            <mxPoint x="200" y="-373" as="sourcePoint" />
            <mxPoint x="250" y="-423" as="targetPoint" />
          </mxGeometry>
        </mxCell>
        <mxCell id="BG_Dscxmu_ziVbKPON2t-18" value="Listar agendas de aulas e lotação" style="ellipse;whiteSpace=wrap;html=1;" parent="1" vertex="1">
          <mxGeometry x="28" y="-410" width="140" height="70" as="geometry" />
        </mxCell>
        <mxCell id="BG_Dscxmu_ziVbKPON2t-19" value="" style="endArrow=none;html=1;rounded=0;" parent="1" source="BG_Dscxmu_ziVbKPON2t-1" target="BG_Dscxmu_ziVbKPON2t-18" edge="1">
          <mxGeometry width="50" height="50" relative="1" as="geometry">
            <mxPoint x="80.125" y="-373" as="sourcePoint" />
            <mxPoint x="90" y="-443" as="targetPoint" />
          </mxGeometry>
        </mxCell>
        <mxCell id="BG_Dscxmu_ziVbKPON2t-20" value="Listar disponibilidade de instrumentos" style="ellipse;whiteSpace=wrap;html=1;" parent="1" vertex="1">
          <mxGeometry x="164" y="-456" width="140" height="70" as="geometry" />
        </mxCell>
        <mxCell id="BG_Dscxmu_ziVbKPON2t-21" value="" style="endArrow=none;html=1;rounded=0;exitX=0.5;exitY=0.5;exitDx=0;exitDy=0;exitPerimeter=0;" parent="1" source="BG_Dscxmu_ziVbKPON2t-1" target="BG_Dscxmu_ziVbKPON2t-20" edge="1">
          <mxGeometry width="50" height="50" relative="1" as="geometry">
            <mxPoint x="100" y="-359.37254901960785" as="sourcePoint" />
            <mxPoint x="280" y="-423" as="targetPoint" />
          </mxGeometry>
        </mxCell>
        <mxCell id="NUsINgCMiz4iPjfcJv-4-1" value="&lt;b&gt;&lt;font style=&quot;font-size: 14px;&quot;&gt;Modelo de Domínio&lt;/font&gt;&lt;/b&gt;" style="shape=umlFrame;whiteSpace=wrap;html=1;pointerEvents=0;width=167;height=36;" parent="1" vertex="1">
          <mxGeometry x="-2107" y="1058" width="903" height="940" as="geometry" />
        </mxCell>
        <mxCell id="lAKjv9YLIrflB9gxmrIk-1" value="dim_time" style="swimlane;fontStyle=1;align=center;verticalAlign=top;childLayout=stackLayout;horizontal=1;startSize=26;horizontalStack=0;resizeParent=1;resizeParentMax=0;resizeLast=0;collapsible=1;marginBottom=0;whiteSpace=wrap;html=1;" vertex="1" parent="1">
          <mxGeometry x="2465" y="1082" width="215" height="164" as="geometry" />
        </mxCell>
        <mxCell id="lAKjv9YLIrflB9gxmrIk-2" value="id_tempo: INT NOT NULL [PK]" style="text;strokeColor=none;fillColor=none;align=left;verticalAlign=top;spacingLeft=4;spacingRight=4;overflow=hidden;rotatable=0;points=[[0,0.5],[1,0.5]];portConstraint=eastwest;whiteSpace=wrap;html=1;" vertex="1" parent="lAKjv9YLIrflB9gxmrIk-1">
          <mxGeometry y="26" width="215" height="26" as="geometry" />
        </mxCell>
        <mxCell id="lAKjv9YLIrflB9gxmrIk-3" value="" style="line;strokeWidth=1;fillColor=none;align=left;verticalAlign=middle;spacingTop=-1;spacingLeft=3;spacingRight=3;rotatable=0;labelPosition=right;points=[];portConstraint=eastwest;strokeColor=inherit;" vertex="1" parent="lAKjv9YLIrflB9gxmrIk-1">
          <mxGeometry y="52" width="215" height="8" as="geometry" />
        </mxCell>
        <mxCell id="lAKjv9YLIrflB9gxmrIk-6" value="data: DATE NOT NULL" style="text;strokeColor=none;fillColor=none;align=left;verticalAlign=top;spacingLeft=4;spacingRight=4;overflow=hidden;rotatable=0;points=[[0,0.5],[1,0.5]];portConstraint=eastwest;whiteSpace=wrap;html=1;" vertex="1" parent="lAKjv9YLIrflB9gxmrIk-1">
          <mxGeometry y="60" width="215" height="26" as="geometry" />
        </mxCell>
        <mxCell id="lAKjv9YLIrflB9gxmrIk-4" value="dia: INTEGER NOT NULL" style="text;strokeColor=none;fillColor=none;align=left;verticalAlign=top;spacingLeft=4;spacingRight=4;overflow=hidden;rotatable=0;points=[[0,0.5],[1,0.5]];portConstraint=eastwest;whiteSpace=wrap;html=1;" vertex="1" parent="lAKjv9YLIrflB9gxmrIk-1">
          <mxGeometry y="86" width="215" height="26" as="geometry" />
        </mxCell>
        <mxCell id="lAKjv9YLIrflB9gxmrIk-26" value="mes: VARCHAR NOT NULL" style="text;strokeColor=none;fillColor=none;align=left;verticalAlign=top;spacingLeft=4;spacingRight=4;overflow=hidden;rotatable=0;points=[[0,0.5],[1,0.5]];portConstraint=eastwest;whiteSpace=wrap;html=1;" vertex="1" parent="lAKjv9YLIrflB9gxmrIk-1">
          <mxGeometry y="112" width="215" height="26" as="geometry" />
        </mxCell>
        <mxCell id="lAKjv9YLIrflB9gxmrIk-25" value="ano: INTEGER NOT NULL" style="text;strokeColor=none;fillColor=none;align=left;verticalAlign=top;spacingLeft=4;spacingRight=4;overflow=hidden;rotatable=0;points=[[0,0.5],[1,0.5]];portConstraint=eastwest;whiteSpace=wrap;html=1;" vertex="1" parent="lAKjv9YLIrflB9gxmrIk-1">
          <mxGeometry y="138" width="215" height="26" as="geometry" />
        </mxCell>
        <mxCell id="lAKjv9YLIrflB9gxmrIk-13" value="fat_emprestimo" style="swimlane;fontStyle=1;align=center;verticalAlign=top;childLayout=stackLayout;horizontal=1;startSize=26;horizontalStack=0;resizeParent=1;resizeParentMax=0;resizeLast=0;collapsible=1;marginBottom=0;whiteSpace=wrap;html=1;fillColor=#fff2cc;strokeColor=#d6b656;" vertex="1" parent="1">
          <mxGeometry x="2762" y="1230" width="218" height="164" as="geometry" />
        </mxCell>
        <mxCell id="lAKjv9YLIrflB9gxmrIk-14" value="id_tempo: INT NOT NULL [PFK]" style="text;strokeColor=none;fillColor=none;align=left;verticalAlign=top;spacingLeft=4;spacingRight=4;overflow=hidden;rotatable=0;points=[[0,0.5],[1,0.5]];portConstraint=eastwest;whiteSpace=wrap;html=1;" vertex="1" parent="lAKjv9YLIrflB9gxmrIk-13">
          <mxGeometry y="26" width="218" height="26" as="geometry" />
        </mxCell>
        <mxCell id="lAKjv9YLIrflB9gxmrIk-15" value="id_instrumento: INT NOT NULL [PFK]" style="text;strokeColor=none;fillColor=none;align=left;verticalAlign=top;spacingLeft=4;spacingRight=4;overflow=hidden;rotatable=0;points=[[0,0.5],[1,0.5]];portConstraint=eastwest;whiteSpace=wrap;html=1;" vertex="1" parent="lAKjv9YLIrflB9gxmrIk-13">
          <mxGeometry y="52" width="218" height="26" as="geometry" />
        </mxCell>
        <mxCell id="lAKjv9YLIrflB9gxmrIk-40" value="id_unidade: INT NOT NULL [PFK]" style="text;strokeColor=none;fillColor=none;align=left;verticalAlign=top;spacingLeft=4;spacingRight=4;overflow=hidden;rotatable=0;points=[[0,0.5],[1,0.5]];portConstraint=eastwest;whiteSpace=wrap;html=1;" vertex="1" parent="lAKjv9YLIrflB9gxmrIk-13">
          <mxGeometry y="78" width="218" height="26" as="geometry" />
        </mxCell>
        <mxCell id="lAKjv9YLIrflB9gxmrIk-16" value="" style="line;strokeWidth=1;fillColor=none;align=left;verticalAlign=middle;spacingTop=-1;spacingLeft=3;spacingRight=3;rotatable=0;labelPosition=right;points=[];portConstraint=eastwest;strokeColor=inherit;" vertex="1" parent="lAKjv9YLIrflB9gxmrIk-13">
          <mxGeometry y="104" width="218" height="8" as="geometry" />
        </mxCell>
        <mxCell id="lAKjv9YLIrflB9gxmrIk-17" value="qnt_emprestimo: INTEGER" style="text;strokeColor=none;fillColor=none;align=left;verticalAlign=top;spacingLeft=4;spacingRight=4;overflow=hidden;rotatable=0;points=[[0,0.5],[1,0.5]];portConstraint=eastwest;whiteSpace=wrap;html=1;" vertex="1" parent="lAKjv9YLIrflB9gxmrIk-13">
          <mxGeometry y="112" width="218" height="26" as="geometry" />
        </mxCell>
        <mxCell id="lAKjv9YLIrflB9gxmrIk-132" value="periodo_emprestimo: INTEGER" style="text;strokeColor=none;fillColor=none;align=left;verticalAlign=top;spacingLeft=4;spacingRight=4;overflow=hidden;rotatable=0;points=[[0,0.5],[1,0.5]];portConstraint=eastwest;whiteSpace=wrap;html=1;" vertex="1" parent="lAKjv9YLIrflB9gxmrIk-13">
          <mxGeometry y="138" width="218" height="26" as="geometry" />
        </mxCell>
        <mxCell id="lAKjv9YLIrflB9gxmrIk-19" value="dim_unidade" style="swimlane;fontStyle=1;align=center;verticalAlign=top;childLayout=stackLayout;horizontal=1;startSize=26;horizontalStack=0;resizeParent=1;resizeParentMax=0;resizeLast=0;collapsible=1;marginBottom=0;whiteSpace=wrap;html=1;" vertex="1" parent="1">
          <mxGeometry x="3054" y="1369" width="204" height="86" as="geometry" />
        </mxCell>
        <mxCell id="lAKjv9YLIrflB9gxmrIk-20" value="id_unidade: INT NOT NULL [PK]" style="text;strokeColor=none;fillColor=none;align=left;verticalAlign=top;spacingLeft=4;spacingRight=4;overflow=hidden;rotatable=0;points=[[0,0.5],[1,0.5]];portConstraint=eastwest;whiteSpace=wrap;html=1;" vertex="1" parent="lAKjv9YLIrflB9gxmrIk-19">
          <mxGeometry y="26" width="204" height="26" as="geometry" />
        </mxCell>
        <mxCell id="lAKjv9YLIrflB9gxmrIk-22" value="" style="line;strokeWidth=1;fillColor=none;align=left;verticalAlign=middle;spacingTop=-1;spacingLeft=3;spacingRight=3;rotatable=0;labelPosition=right;points=[];portConstraint=eastwest;strokeColor=inherit;" vertex="1" parent="lAKjv9YLIrflB9gxmrIk-19">
          <mxGeometry y="52" width="204" height="8" as="geometry" />
        </mxCell>
        <mxCell id="lAKjv9YLIrflB9gxmrIk-23" value="nome: VARCHAR(50) NOT NULL" style="text;strokeColor=none;fillColor=none;align=left;verticalAlign=top;spacingLeft=4;spacingRight=4;overflow=hidden;rotatable=0;points=[[0,0.5],[1,0.5]];portConstraint=eastwest;whiteSpace=wrap;html=1;" vertex="1" parent="lAKjv9YLIrflB9gxmrIk-19">
          <mxGeometry y="60" width="204" height="26" as="geometry" />
        </mxCell>
        <mxCell id="lAKjv9YLIrflB9gxmrIk-37" style="edgeStyle=orthogonalEdgeStyle;rounded=0;orthogonalLoop=1;jettySize=auto;html=1;exitX=1;exitY=0.5;exitDx=0;exitDy=0;entryX=0;entryY=0.5;entryDx=0;entryDy=0;endArrow=ERzeroToMany;endFill=0;startArrow=ERone;startFill=0;" edge="1" parent="1" source="lAKjv9YLIrflB9gxmrIk-32" target="lAKjv9YLIrflB9gxmrIk-15">
          <mxGeometry relative="1" as="geometry" />
        </mxCell>
        <mxCell id="lAKjv9YLIrflB9gxmrIk-31" value="dim_instrumento" style="swimlane;fontStyle=1;align=center;verticalAlign=top;childLayout=stackLayout;horizontal=1;startSize=26;horizontalStack=0;resizeParent=1;resizeParentMax=0;resizeLast=0;collapsible=1;marginBottom=0;whiteSpace=wrap;html=1;" vertex="1" parent="1">
          <mxGeometry x="2451" y="1369" width="231" height="190" as="geometry" />
        </mxCell>
        <mxCell id="lAKjv9YLIrflB9gxmrIk-32" value="id_instrumento: INT NOT NULL [PK]" style="text;strokeColor=none;fillColor=none;align=left;verticalAlign=top;spacingLeft=4;spacingRight=4;overflow=hidden;rotatable=0;points=[[0,0.5],[1,0.5]];portConstraint=eastwest;whiteSpace=wrap;html=1;" vertex="1" parent="lAKjv9YLIrflB9gxmrIk-31">
          <mxGeometry y="26" width="231" height="26" as="geometry" />
        </mxCell>
        <mxCell id="lAKjv9YLIrflB9gxmrIk-34" value="" style="line;strokeWidth=1;fillColor=none;align=left;verticalAlign=middle;spacingTop=-1;spacingLeft=3;spacingRight=3;rotatable=0;labelPosition=right;points=[];portConstraint=eastwest;strokeColor=inherit;" vertex="1" parent="lAKjv9YLIrflB9gxmrIk-31">
          <mxGeometry y="52" width="231" height="8" as="geometry" />
        </mxCell>
        <mxCell id="lAKjv9YLIrflB9gxmrIk-35" value="nome: VARCHAR(50) NOT NULL" style="text;strokeColor=none;fillColor=none;align=left;verticalAlign=top;spacingLeft=4;spacingRight=4;overflow=hidden;rotatable=0;points=[[0,0.5],[1,0.5]];portConstraint=eastwest;whiteSpace=wrap;html=1;" vertex="1" parent="lAKjv9YLIrflB9gxmrIk-31">
          <mxGeometry y="60" width="231" height="26" as="geometry" />
        </mxCell>
        <mxCell id="lAKjv9YLIrflB9gxmrIk-41" value="marca: VARCHAR(30) NOT NULL" style="text;strokeColor=none;fillColor=none;align=left;verticalAlign=top;spacingLeft=4;spacingRight=4;overflow=hidden;rotatable=0;points=[[0,0.5],[1,0.5]];portConstraint=eastwest;whiteSpace=wrap;html=1;" vertex="1" parent="lAKjv9YLIrflB9gxmrIk-31">
          <mxGeometry y="86" width="231" height="26" as="geometry" />
        </mxCell>
        <mxCell id="lAKjv9YLIrflB9gxmrIk-42" value="data_aquisicao: DATE" style="text;strokeColor=none;fillColor=none;align=left;verticalAlign=top;spacingLeft=4;spacingRight=4;overflow=hidden;rotatable=0;points=[[0,0.5],[1,0.5]];portConstraint=eastwest;whiteSpace=wrap;html=1;" vertex="1" parent="lAKjv9YLIrflB9gxmrIk-31">
          <mxGeometry y="112" width="231" height="26" as="geometry" />
        </mxCell>
        <mxCell id="lAKjv9YLIrflB9gxmrIk-131" value="data_devolucao: DATE" style="text;strokeColor=none;fillColor=none;align=left;verticalAlign=top;spacingLeft=4;spacingRight=4;overflow=hidden;rotatable=0;points=[[0,0.5],[1,0.5]];portConstraint=eastwest;whiteSpace=wrap;html=1;" vertex="1" parent="lAKjv9YLIrflB9gxmrIk-31">
          <mxGeometry y="138" width="231" height="26" as="geometry" />
        </mxCell>
        <mxCell id="lAKjv9YLIrflB9gxmrIk-133" value="estado_conservacao: VARCHAR(50)" style="text;strokeColor=none;fillColor=none;align=left;verticalAlign=top;spacingLeft=4;spacingRight=4;overflow=hidden;rotatable=0;points=[[0,0.5],[1,0.5]];portConstraint=eastwest;whiteSpace=wrap;html=1;" vertex="1" parent="lAKjv9YLIrflB9gxmrIk-31">
          <mxGeometry y="164" width="231" height="26" as="geometry" />
        </mxCell>
        <mxCell id="lAKjv9YLIrflB9gxmrIk-38" style="edgeStyle=orthogonalEdgeStyle;rounded=0;orthogonalLoop=1;jettySize=auto;html=1;startArrow=ERone;startFill=0;endArrow=ERzeroToMany;endFill=0;entryX=1;entryY=0.5;entryDx=0;entryDy=0;" edge="1" parent="1" source="lAKjv9YLIrflB9gxmrIk-20" target="lAKjv9YLIrflB9gxmrIk-40">
          <mxGeometry relative="1" as="geometry" />
        </mxCell>
        <mxCell id="lAKjv9YLIrflB9gxmrIk-39" style="edgeStyle=orthogonalEdgeStyle;rounded=0;orthogonalLoop=1;jettySize=auto;html=1;entryX=1;entryY=0.5;entryDx=0;entryDy=0;startArrow=ERzeroToMany;startFill=0;endArrow=ERone;endFill=0;" edge="1" parent="1" source="lAKjv9YLIrflB9gxmrIk-14" target="lAKjv9YLIrflB9gxmrIk-2">
          <mxGeometry relative="1" as="geometry" />
        </mxCell>
        <mxCell id="lAKjv9YLIrflB9gxmrIk-44" value="fat_alunos" style="swimlane;fontStyle=1;align=center;verticalAlign=top;childLayout=stackLayout;horizontal=1;startSize=26;horizontalStack=0;resizeParent=1;resizeParentMax=0;resizeLast=0;collapsible=1;marginBottom=0;whiteSpace=wrap;html=1;fillColor=#fff2cc;strokeColor=#d6b656;" vertex="1" parent="1">
          <mxGeometry x="2785" y="2902" width="218" height="190" as="geometry" />
        </mxCell>
        <mxCell id="lAKjv9YLIrflB9gxmrIk-45" value="id_curso: INT NOT NULL [PFK]" style="text;strokeColor=none;fillColor=none;align=left;verticalAlign=top;spacingLeft=4;spacingRight=4;overflow=hidden;rotatable=0;points=[[0,0.5],[1,0.5]];portConstraint=eastwest;whiteSpace=wrap;html=1;" vertex="1" parent="lAKjv9YLIrflB9gxmrIk-44">
          <mxGeometry y="26" width="218" height="26" as="geometry" />
        </mxCell>
        <mxCell id="lAKjv9YLIrflB9gxmrIk-46" value="id_instrumento: INT NOT NULL [PFK]" style="text;strokeColor=none;fillColor=none;align=left;verticalAlign=top;spacingLeft=4;spacingRight=4;overflow=hidden;rotatable=0;points=[[0,0.5],[1,0.5]];portConstraint=eastwest;whiteSpace=wrap;html=1;" vertex="1" parent="lAKjv9YLIrflB9gxmrIk-44">
          <mxGeometry y="52" width="218" height="26" as="geometry" />
        </mxCell>
        <mxCell id="lAKjv9YLIrflB9gxmrIk-47" value="id_unidade: INT NOT NULL [PFK]" style="text;strokeColor=none;fillColor=none;align=left;verticalAlign=top;spacingLeft=4;spacingRight=4;overflow=hidden;rotatable=0;points=[[0,0.5],[1,0.5]];portConstraint=eastwest;whiteSpace=wrap;html=1;" vertex="1" parent="lAKjv9YLIrflB9gxmrIk-44">
          <mxGeometry y="78" width="218" height="26" as="geometry" />
        </mxCell>
        <mxCell id="lAKjv9YLIrflB9gxmrIk-74" value="id_perfil: INT NOT NULL [PFK]" style="text;strokeColor=none;fillColor=none;align=left;verticalAlign=top;spacingLeft=4;spacingRight=4;overflow=hidden;rotatable=0;points=[[0,0.5],[1,0.5]];portConstraint=eastwest;whiteSpace=wrap;html=1;" vertex="1" parent="lAKjv9YLIrflB9gxmrIk-44">
          <mxGeometry y="104" width="218" height="26" as="geometry" />
        </mxCell>
        <mxCell id="lAKjv9YLIrflB9gxmrIk-102" value="id_tempo: INT NOT NULL [PFK]" style="text;strokeColor=none;fillColor=none;align=left;verticalAlign=top;spacingLeft=4;spacingRight=4;overflow=hidden;rotatable=0;points=[[0,0.5],[1,0.5]];portConstraint=eastwest;whiteSpace=wrap;html=1;" vertex="1" parent="lAKjv9YLIrflB9gxmrIk-44">
          <mxGeometry y="130" width="218" height="26" as="geometry" />
        </mxCell>
        <mxCell id="lAKjv9YLIrflB9gxmrIk-48" value="" style="line;strokeWidth=1;fillColor=none;align=left;verticalAlign=middle;spacingTop=-1;spacingLeft=3;spacingRight=3;rotatable=0;labelPosition=right;points=[];portConstraint=eastwest;strokeColor=inherit;" vertex="1" parent="lAKjv9YLIrflB9gxmrIk-44">
          <mxGeometry y="156" width="218" height="8" as="geometry" />
        </mxCell>
        <mxCell id="lAKjv9YLIrflB9gxmrIk-49" value="qnt_alunos: INT&amp;nbsp;" style="text;strokeColor=none;fillColor=none;align=left;verticalAlign=top;spacingLeft=4;spacingRight=4;overflow=hidden;rotatable=0;points=[[0,0.5],[1,0.5]];portConstraint=eastwest;whiteSpace=wrap;html=1;" vertex="1" parent="lAKjv9YLIrflB9gxmrIk-44">
          <mxGeometry y="164" width="218" height="26" as="geometry" />
        </mxCell>
        <mxCell id="lAKjv9YLIrflB9gxmrIk-51" value="dim_instrumento" style="swimlane;fontStyle=1;align=center;verticalAlign=top;childLayout=stackLayout;horizontal=1;startSize=26;horizontalStack=0;resizeParent=1;resizeParentMax=0;resizeLast=0;collapsible=1;marginBottom=0;whiteSpace=wrap;html=1;" vertex="1" parent="1">
          <mxGeometry x="2479" y="2774" width="204" height="138" as="geometry" />
        </mxCell>
        <mxCell id="lAKjv9YLIrflB9gxmrIk-52" value="id_instrumento: INT NOT NULL [PK]" style="text;strokeColor=none;fillColor=none;align=left;verticalAlign=top;spacingLeft=4;spacingRight=4;overflow=hidden;rotatable=0;points=[[0,0.5],[1,0.5]];portConstraint=eastwest;whiteSpace=wrap;html=1;" vertex="1" parent="lAKjv9YLIrflB9gxmrIk-51">
          <mxGeometry y="26" width="204" height="26" as="geometry" />
        </mxCell>
        <mxCell id="lAKjv9YLIrflB9gxmrIk-53" value="" style="line;strokeWidth=1;fillColor=none;align=left;verticalAlign=middle;spacingTop=-1;spacingLeft=3;spacingRight=3;rotatable=0;labelPosition=right;points=[];portConstraint=eastwest;strokeColor=inherit;" vertex="1" parent="lAKjv9YLIrflB9gxmrIk-51">
          <mxGeometry y="52" width="204" height="8" as="geometry" />
        </mxCell>
        <mxCell id="lAKjv9YLIrflB9gxmrIk-54" value="nome: VARCHAR(50) NOT NULL" style="text;strokeColor=none;fillColor=none;align=left;verticalAlign=top;spacingLeft=4;spacingRight=4;overflow=hidden;rotatable=0;points=[[0,0.5],[1,0.5]];portConstraint=eastwest;whiteSpace=wrap;html=1;" vertex="1" parent="lAKjv9YLIrflB9gxmrIk-51">
          <mxGeometry y="60" width="204" height="26" as="geometry" />
        </mxCell>
        <mxCell id="lAKjv9YLIrflB9gxmrIk-55" value="data_aquisicao: DATE" style="text;strokeColor=none;fillColor=none;align=left;verticalAlign=top;spacingLeft=4;spacingRight=4;overflow=hidden;rotatable=0;points=[[0,0.5],[1,0.5]];portConstraint=eastwest;whiteSpace=wrap;html=1;" vertex="1" parent="lAKjv9YLIrflB9gxmrIk-51">
          <mxGeometry y="86" width="204" height="26" as="geometry" />
        </mxCell>
        <mxCell id="lAKjv9YLIrflB9gxmrIk-56" value="marca: VARCHAR(30) NOT NULL" style="text;strokeColor=none;fillColor=none;align=left;verticalAlign=top;spacingLeft=4;spacingRight=4;overflow=hidden;rotatable=0;points=[[0,0.5],[1,0.5]];portConstraint=eastwest;whiteSpace=wrap;html=1;" vertex="1" parent="lAKjv9YLIrflB9gxmrIk-51">
          <mxGeometry y="112" width="204" height="26" as="geometry" />
        </mxCell>
        <mxCell id="lAKjv9YLIrflB9gxmrIk-57" value="dim_unidade" style="swimlane;fontStyle=1;align=center;verticalAlign=top;childLayout=stackLayout;horizontal=1;startSize=26;horizontalStack=0;resizeParent=1;resizeParentMax=0;resizeLast=0;collapsible=1;marginBottom=0;whiteSpace=wrap;html=1;" vertex="1" parent="1">
          <mxGeometry x="3063" y="3197" width="204" height="86" as="geometry" />
        </mxCell>
        <mxCell id="lAKjv9YLIrflB9gxmrIk-58" value="id_unidade: INT NOT NULL [PK]" style="text;strokeColor=none;fillColor=none;align=left;verticalAlign=top;spacingLeft=4;spacingRight=4;overflow=hidden;rotatable=0;points=[[0,0.5],[1,0.5]];portConstraint=eastwest;whiteSpace=wrap;html=1;" vertex="1" parent="lAKjv9YLIrflB9gxmrIk-57">
          <mxGeometry y="26" width="204" height="26" as="geometry" />
        </mxCell>
        <mxCell id="lAKjv9YLIrflB9gxmrIk-59" value="" style="line;strokeWidth=1;fillColor=none;align=left;verticalAlign=middle;spacingTop=-1;spacingLeft=3;spacingRight=3;rotatable=0;labelPosition=right;points=[];portConstraint=eastwest;strokeColor=inherit;" vertex="1" parent="lAKjv9YLIrflB9gxmrIk-57">
          <mxGeometry y="52" width="204" height="8" as="geometry" />
        </mxCell>
        <mxCell id="lAKjv9YLIrflB9gxmrIk-60" value="nome: VARCHAR(50) NOT NULL" style="text;strokeColor=none;fillColor=none;align=left;verticalAlign=top;spacingLeft=4;spacingRight=4;overflow=hidden;rotatable=0;points=[[0,0.5],[1,0.5]];portConstraint=eastwest;whiteSpace=wrap;html=1;" vertex="1" parent="lAKjv9YLIrflB9gxmrIk-57">
          <mxGeometry y="60" width="204" height="26" as="geometry" />
        </mxCell>
        <mxCell id="lAKjv9YLIrflB9gxmrIk-61" value="dim_curso" style="swimlane;fontStyle=1;align=center;verticalAlign=top;childLayout=stackLayout;horizontal=1;startSize=26;horizontalStack=0;resizeParent=1;resizeParentMax=0;resizeLast=0;collapsible=1;marginBottom=0;whiteSpace=wrap;html=1;" vertex="1" parent="1">
          <mxGeometry x="3094" y="2944" width="204" height="86" as="geometry" />
        </mxCell>
        <mxCell id="lAKjv9YLIrflB9gxmrIk-62" value="id_curso: INT NOT NULL [PK]" style="text;strokeColor=none;fillColor=none;align=left;verticalAlign=top;spacingLeft=4;spacingRight=4;overflow=hidden;rotatable=0;points=[[0,0.5],[1,0.5]];portConstraint=eastwest;whiteSpace=wrap;html=1;" vertex="1" parent="lAKjv9YLIrflB9gxmrIk-61">
          <mxGeometry y="26" width="204" height="26" as="geometry" />
        </mxCell>
        <mxCell id="lAKjv9YLIrflB9gxmrIk-63" value="" style="line;strokeWidth=1;fillColor=none;align=left;verticalAlign=middle;spacingTop=-1;spacingLeft=3;spacingRight=3;rotatable=0;labelPosition=right;points=[];portConstraint=eastwest;strokeColor=inherit;" vertex="1" parent="lAKjv9YLIrflB9gxmrIk-61">
          <mxGeometry y="52" width="204" height="8" as="geometry" />
        </mxCell>
        <mxCell id="lAKjv9YLIrflB9gxmrIk-64" value="nome: VARCHAR(50) NOT NULL" style="text;strokeColor=none;fillColor=none;align=left;verticalAlign=top;spacingLeft=4;spacingRight=4;overflow=hidden;rotatable=0;points=[[0,0.5],[1,0.5]];portConstraint=eastwest;whiteSpace=wrap;html=1;" vertex="1" parent="lAKjv9YLIrflB9gxmrIk-61">
          <mxGeometry y="60" width="204" height="26" as="geometry" />
        </mxCell>
        <mxCell id="lAKjv9YLIrflB9gxmrIk-65" style="edgeStyle=orthogonalEdgeStyle;rounded=0;orthogonalLoop=1;jettySize=auto;html=1;exitX=0;exitY=0.5;exitDx=0;exitDy=0;entryX=1;entryY=0.5;entryDx=0;entryDy=0;endArrow=ERzeroToMany;endFill=0;" edge="1" parent="1" source="lAKjv9YLIrflB9gxmrIk-62" target="lAKjv9YLIrflB9gxmrIk-45">
          <mxGeometry relative="1" as="geometry" />
        </mxCell>
        <mxCell id="lAKjv9YLIrflB9gxmrIk-66" style="edgeStyle=orthogonalEdgeStyle;rounded=0;orthogonalLoop=1;jettySize=auto;html=1;exitX=0;exitY=0.5;exitDx=0;exitDy=0;entryX=1;entryY=0.5;entryDx=0;entryDy=0;endArrow=ERzeroToMany;endFill=0;startArrow=ERone;startFill=0;" edge="1" parent="1" source="lAKjv9YLIrflB9gxmrIk-58" target="lAKjv9YLIrflB9gxmrIk-47">
          <mxGeometry relative="1" as="geometry" />
        </mxCell>
        <mxCell id="lAKjv9YLIrflB9gxmrIk-67" style="edgeStyle=orthogonalEdgeStyle;rounded=0;orthogonalLoop=1;jettySize=auto;html=1;exitX=1;exitY=0.5;exitDx=0;exitDy=0;entryX=0;entryY=0.5;entryDx=0;entryDy=0;endArrow=ERzeroToMany;endFill=0;startArrow=ERone;startFill=0;" edge="1" parent="1" source="lAKjv9YLIrflB9gxmrIk-52" target="lAKjv9YLIrflB9gxmrIk-46">
          <mxGeometry relative="1" as="geometry" />
        </mxCell>
        <mxCell id="lAKjv9YLIrflB9gxmrIk-68" value="dim_perfil" style="swimlane;fontStyle=1;align=center;verticalAlign=top;childLayout=stackLayout;horizontal=1;startSize=26;horizontalStack=0;resizeParent=1;resizeParentMax=0;resizeLast=0;collapsible=1;marginBottom=0;whiteSpace=wrap;html=1;" vertex="1" parent="1">
          <mxGeometry x="2444" y="2981" width="204" height="138" as="geometry" />
        </mxCell>
        <mxCell id="lAKjv9YLIrflB9gxmrIk-69" value="id_perfil: INT NOT NULL [PK]" style="text;strokeColor=none;fillColor=none;align=left;verticalAlign=top;spacingLeft=4;spacingRight=4;overflow=hidden;rotatable=0;points=[[0,0.5],[1,0.5]];portConstraint=eastwest;whiteSpace=wrap;html=1;" vertex="1" parent="lAKjv9YLIrflB9gxmrIk-68">
          <mxGeometry y="26" width="204" height="26" as="geometry" />
        </mxCell>
        <mxCell id="lAKjv9YLIrflB9gxmrIk-70" value="" style="line;strokeWidth=1;fillColor=none;align=left;verticalAlign=middle;spacingTop=-1;spacingLeft=3;spacingRight=3;rotatable=0;labelPosition=right;points=[];portConstraint=eastwest;strokeColor=inherit;" vertex="1" parent="lAKjv9YLIrflB9gxmrIk-68">
          <mxGeometry y="52" width="204" height="8" as="geometry" />
        </mxCell>
        <mxCell id="lAKjv9YLIrflB9gxmrIk-71" value="idade: INTEGER NOT NULL" style="text;strokeColor=none;fillColor=none;align=left;verticalAlign=top;spacingLeft=4;spacingRight=4;overflow=hidden;rotatable=0;points=[[0,0.5],[1,0.5]];portConstraint=eastwest;whiteSpace=wrap;html=1;" vertex="1" parent="lAKjv9YLIrflB9gxmrIk-68">
          <mxGeometry y="60" width="204" height="26" as="geometry" />
        </mxCell>
        <mxCell id="lAKjv9YLIrflB9gxmrIk-101" value="data_ingresso: DATE" style="text;strokeColor=none;fillColor=none;align=left;verticalAlign=top;spacingLeft=4;spacingRight=4;overflow=hidden;rotatable=0;points=[[0,0.5],[1,0.5]];portConstraint=eastwest;whiteSpace=wrap;html=1;" vertex="1" parent="lAKjv9YLIrflB9gxmrIk-68">
          <mxGeometry y="86" width="204" height="26" as="geometry" />
        </mxCell>
        <mxCell id="lAKjv9YLIrflB9gxmrIk-100" value="data_desligamento: DATE" style="text;strokeColor=none;fillColor=none;align=left;verticalAlign=top;spacingLeft=4;spacingRight=4;overflow=hidden;rotatable=0;points=[[0,0.5],[1,0.5]];portConstraint=eastwest;whiteSpace=wrap;html=1;" vertex="1" parent="lAKjv9YLIrflB9gxmrIk-68">
          <mxGeometry y="112" width="204" height="26" as="geometry" />
        </mxCell>
        <mxCell id="lAKjv9YLIrflB9gxmrIk-75" style="edgeStyle=orthogonalEdgeStyle;rounded=0;orthogonalLoop=1;jettySize=auto;html=1;exitX=1;exitY=0.5;exitDx=0;exitDy=0;endArrow=ERzeroToMany;endFill=0;startArrow=ERone;startFill=0;" edge="1" parent="1" source="lAKjv9YLIrflB9gxmrIk-69" target="lAKjv9YLIrflB9gxmrIk-74">
          <mxGeometry relative="1" as="geometry" />
        </mxCell>
        <mxCell id="lAKjv9YLIrflB9gxmrIk-76" value="fat_turmas" style="swimlane;fontStyle=1;align=center;verticalAlign=top;childLayout=stackLayout;horizontal=1;startSize=26;horizontalStack=0;resizeParent=1;resizeParentMax=0;resizeLast=0;collapsible=1;marginBottom=0;whiteSpace=wrap;html=1;fillColor=#fff2cc;strokeColor=#d6b656;" vertex="1" parent="1">
          <mxGeometry x="2792" y="2014" width="218" height="164" as="geometry" />
        </mxCell>
        <mxCell id="lAKjv9YLIrflB9gxmrIk-78" value="id_instrumento: INT NOT NULL [PFK]" style="text;strokeColor=none;fillColor=none;align=left;verticalAlign=top;spacingLeft=4;spacingRight=4;overflow=hidden;rotatable=0;points=[[0,0.5],[1,0.5]];portConstraint=eastwest;whiteSpace=wrap;html=1;" vertex="1" parent="lAKjv9YLIrflB9gxmrIk-76">
          <mxGeometry y="26" width="218" height="26" as="geometry" />
        </mxCell>
        <mxCell id="lAKjv9YLIrflB9gxmrIk-79" value="id_unidade: INT NOT NULL [PFK]" style="text;strokeColor=none;fillColor=none;align=left;verticalAlign=top;spacingLeft=4;spacingRight=4;overflow=hidden;rotatable=0;points=[[0,0.5],[1,0.5]];portConstraint=eastwest;whiteSpace=wrap;html=1;" vertex="1" parent="lAKjv9YLIrflB9gxmrIk-76">
          <mxGeometry y="52" width="218" height="26" as="geometry" />
        </mxCell>
        <mxCell id="lAKjv9YLIrflB9gxmrIk-126" value="id_perfil: INT NOT NULL [PFK]" style="text;strokeColor=none;fillColor=none;align=left;verticalAlign=top;spacingLeft=4;spacingRight=4;overflow=hidden;rotatable=0;points=[[0,0.5],[1,0.5]];portConstraint=eastwest;whiteSpace=wrap;html=1;" vertex="1" parent="lAKjv9YLIrflB9gxmrIk-76">
          <mxGeometry y="78" width="218" height="26" as="geometry" />
        </mxCell>
        <mxCell id="lAKjv9YLIrflB9gxmrIk-125" value="id_tempo: INT NOT NULL [PFK]" style="text;strokeColor=none;fillColor=none;align=left;verticalAlign=top;spacingLeft=4;spacingRight=4;overflow=hidden;rotatable=0;points=[[0,0.5],[1,0.5]];portConstraint=eastwest;whiteSpace=wrap;html=1;" vertex="1" parent="lAKjv9YLIrflB9gxmrIk-76">
          <mxGeometry y="104" width="218" height="26" as="geometry" />
        </mxCell>
        <mxCell id="lAKjv9YLIrflB9gxmrIk-81" value="" style="line;strokeWidth=1;fillColor=none;align=left;verticalAlign=middle;spacingTop=-1;spacingLeft=3;spacingRight=3;rotatable=0;labelPosition=right;points=[];portConstraint=eastwest;strokeColor=inherit;" vertex="1" parent="lAKjv9YLIrflB9gxmrIk-76">
          <mxGeometry y="130" width="218" height="8" as="geometry" />
        </mxCell>
        <mxCell id="lAKjv9YLIrflB9gxmrIk-82" value="qnt_turmas: INT&amp;nbsp;" style="text;strokeColor=none;fillColor=none;align=left;verticalAlign=top;spacingLeft=4;spacingRight=4;overflow=hidden;rotatable=0;points=[[0,0.5],[1,0.5]];portConstraint=eastwest;whiteSpace=wrap;html=1;" vertex="1" parent="lAKjv9YLIrflB9gxmrIk-76">
          <mxGeometry y="138" width="218" height="26" as="geometry" />
        </mxCell>
        <mxCell id="lAKjv9YLIrflB9gxmrIk-83" value="dim_instrumento" style="swimlane;fontStyle=1;align=center;verticalAlign=top;childLayout=stackLayout;horizontal=1;startSize=26;horizontalStack=0;resizeParent=1;resizeParentMax=0;resizeLast=0;collapsible=1;marginBottom=0;whiteSpace=wrap;html=1;" vertex="1" parent="1">
          <mxGeometry x="2471" y="1902" width="204" height="138" as="geometry" />
        </mxCell>
        <mxCell id="lAKjv9YLIrflB9gxmrIk-84" value="id_instrumento: INT NOT NULL [PK]" style="text;strokeColor=none;fillColor=none;align=left;verticalAlign=top;spacingLeft=4;spacingRight=4;overflow=hidden;rotatable=0;points=[[0,0.5],[1,0.5]];portConstraint=eastwest;whiteSpace=wrap;html=1;" vertex="1" parent="lAKjv9YLIrflB9gxmrIk-83">
          <mxGeometry y="26" width="204" height="26" as="geometry" />
        </mxCell>
        <mxCell id="lAKjv9YLIrflB9gxmrIk-85" value="" style="line;strokeWidth=1;fillColor=none;align=left;verticalAlign=middle;spacingTop=-1;spacingLeft=3;spacingRight=3;rotatable=0;labelPosition=right;points=[];portConstraint=eastwest;strokeColor=inherit;" vertex="1" parent="lAKjv9YLIrflB9gxmrIk-83">
          <mxGeometry y="52" width="204" height="8" as="geometry" />
        </mxCell>
        <mxCell id="lAKjv9YLIrflB9gxmrIk-86" value="nome: VARCHAR(50) NOT NULL" style="text;strokeColor=none;fillColor=none;align=left;verticalAlign=top;spacingLeft=4;spacingRight=4;overflow=hidden;rotatable=0;points=[[0,0.5],[1,0.5]];portConstraint=eastwest;whiteSpace=wrap;html=1;" vertex="1" parent="lAKjv9YLIrflB9gxmrIk-83">
          <mxGeometry y="60" width="204" height="26" as="geometry" />
        </mxCell>
        <mxCell id="lAKjv9YLIrflB9gxmrIk-87" value="data_aquisicao: DATE" style="text;strokeColor=none;fillColor=none;align=left;verticalAlign=top;spacingLeft=4;spacingRight=4;overflow=hidden;rotatable=0;points=[[0,0.5],[1,0.5]];portConstraint=eastwest;whiteSpace=wrap;html=1;" vertex="1" parent="lAKjv9YLIrflB9gxmrIk-83">
          <mxGeometry y="86" width="204" height="26" as="geometry" />
        </mxCell>
        <mxCell id="lAKjv9YLIrflB9gxmrIk-88" value="marca: VARCHAR(30) NOT NULL" style="text;strokeColor=none;fillColor=none;align=left;verticalAlign=top;spacingLeft=4;spacingRight=4;overflow=hidden;rotatable=0;points=[[0,0.5],[1,0.5]];portConstraint=eastwest;whiteSpace=wrap;html=1;" vertex="1" parent="lAKjv9YLIrflB9gxmrIk-83">
          <mxGeometry y="112" width="204" height="26" as="geometry" />
        </mxCell>
        <mxCell id="lAKjv9YLIrflB9gxmrIk-93" value="dim_unidade" style="swimlane;fontStyle=1;align=center;verticalAlign=top;childLayout=stackLayout;horizontal=1;startSize=26;horizontalStack=0;resizeParent=1;resizeParentMax=0;resizeLast=0;collapsible=1;marginBottom=0;whiteSpace=wrap;html=1;" vertex="1" parent="1">
          <mxGeometry x="2466" y="2177" width="204" height="86" as="geometry" />
        </mxCell>
        <mxCell id="lAKjv9YLIrflB9gxmrIk-94" value="id_unidade: INT NOT NULL [PK]" style="text;strokeColor=none;fillColor=none;align=left;verticalAlign=top;spacingLeft=4;spacingRight=4;overflow=hidden;rotatable=0;points=[[0,0.5],[1,0.5]];portConstraint=eastwest;whiteSpace=wrap;html=1;" vertex="1" parent="lAKjv9YLIrflB9gxmrIk-93">
          <mxGeometry y="26" width="204" height="26" as="geometry" />
        </mxCell>
        <mxCell id="lAKjv9YLIrflB9gxmrIk-95" value="" style="line;strokeWidth=1;fillColor=none;align=left;verticalAlign=middle;spacingTop=-1;spacingLeft=3;spacingRight=3;rotatable=0;labelPosition=right;points=[];portConstraint=eastwest;strokeColor=inherit;" vertex="1" parent="lAKjv9YLIrflB9gxmrIk-93">
          <mxGeometry y="52" width="204" height="8" as="geometry" />
        </mxCell>
        <mxCell id="lAKjv9YLIrflB9gxmrIk-96" value="nome: VARCHAR(50) NOT NULL" style="text;strokeColor=none;fillColor=none;align=left;verticalAlign=top;spacingLeft=4;spacingRight=4;overflow=hidden;rotatable=0;points=[[0,0.5],[1,0.5]];portConstraint=eastwest;whiteSpace=wrap;html=1;" vertex="1" parent="lAKjv9YLIrflB9gxmrIk-93">
          <mxGeometry y="60" width="204" height="26" as="geometry" />
        </mxCell>
        <mxCell id="lAKjv9YLIrflB9gxmrIk-97" style="edgeStyle=orthogonalEdgeStyle;rounded=0;orthogonalLoop=1;jettySize=auto;html=1;exitX=1;exitY=0.5;exitDx=0;exitDy=0;entryX=0;entryY=0.5;entryDx=0;entryDy=0;endArrow=ERzeroToMany;endFill=0;startArrow=ERone;startFill=0;" edge="1" parent="1" source="lAKjv9YLIrflB9gxmrIk-84" target="lAKjv9YLIrflB9gxmrIk-78">
          <mxGeometry relative="1" as="geometry" />
        </mxCell>
        <mxCell id="lAKjv9YLIrflB9gxmrIk-98" style="edgeStyle=orthogonalEdgeStyle;rounded=0;orthogonalLoop=1;jettySize=auto;html=1;entryX=0;entryY=0.5;entryDx=0;entryDy=0;endArrow=ERoneToMany;endFill=0;startArrow=ERone;startFill=0;" edge="1" parent="1" source="lAKjv9YLIrflB9gxmrIk-94" target="lAKjv9YLIrflB9gxmrIk-79">
          <mxGeometry relative="1" as="geometry" />
        </mxCell>
        <mxCell id="lAKjv9YLIrflB9gxmrIk-103" value="dim_time" style="swimlane;fontStyle=1;align=center;verticalAlign=top;childLayout=stackLayout;horizontal=1;startSize=26;horizontalStack=0;resizeParent=1;resizeParentMax=0;resizeLast=0;collapsible=1;marginBottom=0;whiteSpace=wrap;html=1;" vertex="1" parent="1">
          <mxGeometry x="2473.5" y="3194" width="215" height="164" as="geometry" />
        </mxCell>
        <mxCell id="lAKjv9YLIrflB9gxmrIk-104" value="id_tempo: INT NOT NULL [PK]" style="text;strokeColor=none;fillColor=none;align=left;verticalAlign=top;spacingLeft=4;spacingRight=4;overflow=hidden;rotatable=0;points=[[0,0.5],[1,0.5]];portConstraint=eastwest;whiteSpace=wrap;html=1;" vertex="1" parent="lAKjv9YLIrflB9gxmrIk-103">
          <mxGeometry y="26" width="215" height="26" as="geometry" />
        </mxCell>
        <mxCell id="lAKjv9YLIrflB9gxmrIk-105" value="" style="line;strokeWidth=1;fillColor=none;align=left;verticalAlign=middle;spacingTop=-1;spacingLeft=3;spacingRight=3;rotatable=0;labelPosition=right;points=[];portConstraint=eastwest;strokeColor=inherit;" vertex="1" parent="lAKjv9YLIrflB9gxmrIk-103">
          <mxGeometry y="52" width="215" height="8" as="geometry" />
        </mxCell>
        <mxCell id="lAKjv9YLIrflB9gxmrIk-106" value="data: DATE NOT NULL" style="text;strokeColor=none;fillColor=none;align=left;verticalAlign=top;spacingLeft=4;spacingRight=4;overflow=hidden;rotatable=0;points=[[0,0.5],[1,0.5]];portConstraint=eastwest;whiteSpace=wrap;html=1;" vertex="1" parent="lAKjv9YLIrflB9gxmrIk-103">
          <mxGeometry y="60" width="215" height="26" as="geometry" />
        </mxCell>
        <mxCell id="lAKjv9YLIrflB9gxmrIk-107" value="dia: INTEGER NOT NULL" style="text;strokeColor=none;fillColor=none;align=left;verticalAlign=top;spacingLeft=4;spacingRight=4;overflow=hidden;rotatable=0;points=[[0,0.5],[1,0.5]];portConstraint=eastwest;whiteSpace=wrap;html=1;" vertex="1" parent="lAKjv9YLIrflB9gxmrIk-103">
          <mxGeometry y="86" width="215" height="26" as="geometry" />
        </mxCell>
        <mxCell id="lAKjv9YLIrflB9gxmrIk-108" value="mes: VARCHAR NOT NULL" style="text;strokeColor=none;fillColor=none;align=left;verticalAlign=top;spacingLeft=4;spacingRight=4;overflow=hidden;rotatable=0;points=[[0,0.5],[1,0.5]];portConstraint=eastwest;whiteSpace=wrap;html=1;" vertex="1" parent="lAKjv9YLIrflB9gxmrIk-103">
          <mxGeometry y="112" width="215" height="26" as="geometry" />
        </mxCell>
        <mxCell id="lAKjv9YLIrflB9gxmrIk-109" value="ano: INTEGER NOT NULL" style="text;strokeColor=none;fillColor=none;align=left;verticalAlign=top;spacingLeft=4;spacingRight=4;overflow=hidden;rotatable=0;points=[[0,0.5],[1,0.5]];portConstraint=eastwest;whiteSpace=wrap;html=1;" vertex="1" parent="lAKjv9YLIrflB9gxmrIk-103">
          <mxGeometry y="138" width="215" height="26" as="geometry" />
        </mxCell>
        <mxCell id="lAKjv9YLIrflB9gxmrIk-110" style="edgeStyle=orthogonalEdgeStyle;rounded=0;orthogonalLoop=1;jettySize=auto;html=1;exitX=1;exitY=0.5;exitDx=0;exitDy=0;entryX=0;entryY=0.5;entryDx=0;entryDy=0;endArrow=ERzeroToMany;endFill=0;startArrow=ERone;startFill=0;" edge="1" parent="1" source="lAKjv9YLIrflB9gxmrIk-104" target="lAKjv9YLIrflB9gxmrIk-102">
          <mxGeometry relative="1" as="geometry" />
        </mxCell>
        <mxCell id="lAKjv9YLIrflB9gxmrIk-111" value="dim_perfil" style="swimlane;fontStyle=1;align=center;verticalAlign=top;childLayout=stackLayout;horizontal=1;startSize=26;horizontalStack=0;resizeParent=1;resizeParentMax=0;resizeLast=0;collapsible=1;marginBottom=0;whiteSpace=wrap;html=1;" vertex="1" parent="1">
          <mxGeometry x="2816" y="1798" width="204" height="138" as="geometry" />
        </mxCell>
        <mxCell id="lAKjv9YLIrflB9gxmrIk-112" value="id_perfil: INT NOT NULL [PK]" style="text;strokeColor=none;fillColor=none;align=left;verticalAlign=top;spacingLeft=4;spacingRight=4;overflow=hidden;rotatable=0;points=[[0,0.5],[1,0.5]];portConstraint=eastwest;whiteSpace=wrap;html=1;" vertex="1" parent="lAKjv9YLIrflB9gxmrIk-111">
          <mxGeometry y="26" width="204" height="26" as="geometry" />
        </mxCell>
        <mxCell id="lAKjv9YLIrflB9gxmrIk-113" value="" style="line;strokeWidth=1;fillColor=none;align=left;verticalAlign=middle;spacingTop=-1;spacingLeft=3;spacingRight=3;rotatable=0;labelPosition=right;points=[];portConstraint=eastwest;strokeColor=inherit;" vertex="1" parent="lAKjv9YLIrflB9gxmrIk-111">
          <mxGeometry y="52" width="204" height="8" as="geometry" />
        </mxCell>
        <mxCell id="lAKjv9YLIrflB9gxmrIk-114" value="idade: INTEGER NOT NULL" style="text;strokeColor=none;fillColor=none;align=left;verticalAlign=top;spacingLeft=4;spacingRight=4;overflow=hidden;rotatable=0;points=[[0,0.5],[1,0.5]];portConstraint=eastwest;whiteSpace=wrap;html=1;" vertex="1" parent="lAKjv9YLIrflB9gxmrIk-111">
          <mxGeometry y="60" width="204" height="26" as="geometry" />
        </mxCell>
        <mxCell id="lAKjv9YLIrflB9gxmrIk-115" value="data_ingresso: DATE" style="text;strokeColor=none;fillColor=none;align=left;verticalAlign=top;spacingLeft=4;spacingRight=4;overflow=hidden;rotatable=0;points=[[0,0.5],[1,0.5]];portConstraint=eastwest;whiteSpace=wrap;html=1;" vertex="1" parent="lAKjv9YLIrflB9gxmrIk-111">
          <mxGeometry y="86" width="204" height="26" as="geometry" />
        </mxCell>
        <mxCell id="lAKjv9YLIrflB9gxmrIk-116" value="data_desligamento: DATE" style="text;strokeColor=none;fillColor=none;align=left;verticalAlign=top;spacingLeft=4;spacingRight=4;overflow=hidden;rotatable=0;points=[[0,0.5],[1,0.5]];portConstraint=eastwest;whiteSpace=wrap;html=1;" vertex="1" parent="lAKjv9YLIrflB9gxmrIk-111">
          <mxGeometry y="112" width="204" height="26" as="geometry" />
        </mxCell>
        <mxCell id="lAKjv9YLIrflB9gxmrIk-117" value="dim_time" style="swimlane;fontStyle=1;align=center;verticalAlign=top;childLayout=stackLayout;horizontal=1;startSize=26;horizontalStack=0;resizeParent=1;resizeParentMax=0;resizeLast=0;collapsible=1;marginBottom=0;whiteSpace=wrap;html=1;" vertex="1" parent="1">
          <mxGeometry x="3102" y="2143" width="215" height="164" as="geometry" />
        </mxCell>
        <mxCell id="lAKjv9YLIrflB9gxmrIk-118" value="id_tempo: INT NOT NULL [PK]" style="text;strokeColor=none;fillColor=none;align=left;verticalAlign=top;spacingLeft=4;spacingRight=4;overflow=hidden;rotatable=0;points=[[0,0.5],[1,0.5]];portConstraint=eastwest;whiteSpace=wrap;html=1;" vertex="1" parent="lAKjv9YLIrflB9gxmrIk-117">
          <mxGeometry y="26" width="215" height="26" as="geometry" />
        </mxCell>
        <mxCell id="lAKjv9YLIrflB9gxmrIk-119" value="" style="line;strokeWidth=1;fillColor=none;align=left;verticalAlign=middle;spacingTop=-1;spacingLeft=3;spacingRight=3;rotatable=0;labelPosition=right;points=[];portConstraint=eastwest;strokeColor=inherit;" vertex="1" parent="lAKjv9YLIrflB9gxmrIk-117">
          <mxGeometry y="52" width="215" height="8" as="geometry" />
        </mxCell>
        <mxCell id="lAKjv9YLIrflB9gxmrIk-120" value="data: DATE NOT NULL" style="text;strokeColor=none;fillColor=none;align=left;verticalAlign=top;spacingLeft=4;spacingRight=4;overflow=hidden;rotatable=0;points=[[0,0.5],[1,0.5]];portConstraint=eastwest;whiteSpace=wrap;html=1;" vertex="1" parent="lAKjv9YLIrflB9gxmrIk-117">
          <mxGeometry y="60" width="215" height="26" as="geometry" />
        </mxCell>
        <mxCell id="lAKjv9YLIrflB9gxmrIk-121" value="dia: INTEGER NOT NULL" style="text;strokeColor=none;fillColor=none;align=left;verticalAlign=top;spacingLeft=4;spacingRight=4;overflow=hidden;rotatable=0;points=[[0,0.5],[1,0.5]];portConstraint=eastwest;whiteSpace=wrap;html=1;" vertex="1" parent="lAKjv9YLIrflB9gxmrIk-117">
          <mxGeometry y="86" width="215" height="26" as="geometry" />
        </mxCell>
        <mxCell id="lAKjv9YLIrflB9gxmrIk-122" value="mes: VARCHAR NOT NULL" style="text;strokeColor=none;fillColor=none;align=left;verticalAlign=top;spacingLeft=4;spacingRight=4;overflow=hidden;rotatable=0;points=[[0,0.5],[1,0.5]];portConstraint=eastwest;whiteSpace=wrap;html=1;" vertex="1" parent="lAKjv9YLIrflB9gxmrIk-117">
          <mxGeometry y="112" width="215" height="26" as="geometry" />
        </mxCell>
        <mxCell id="lAKjv9YLIrflB9gxmrIk-123" value="ano: INTEGER NOT NULL" style="text;strokeColor=none;fillColor=none;align=left;verticalAlign=top;spacingLeft=4;spacingRight=4;overflow=hidden;rotatable=0;points=[[0,0.5],[1,0.5]];portConstraint=eastwest;whiteSpace=wrap;html=1;" vertex="1" parent="lAKjv9YLIrflB9gxmrIk-117">
          <mxGeometry y="138" width="215" height="26" as="geometry" />
        </mxCell>
        <mxCell id="lAKjv9YLIrflB9gxmrIk-127" style="edgeStyle=orthogonalEdgeStyle;rounded=0;orthogonalLoop=1;jettySize=auto;html=1;exitX=1;exitY=0.5;exitDx=0;exitDy=0;entryX=1;entryY=0.5;entryDx=0;entryDy=0;endArrow=ERzeroToMany;endFill=0;startArrow=ERone;startFill=0;" edge="1" parent="1" source="lAKjv9YLIrflB9gxmrIk-112" target="lAKjv9YLIrflB9gxmrIk-126">
          <mxGeometry relative="1" as="geometry" />
        </mxCell>
        <mxCell id="lAKjv9YLIrflB9gxmrIk-128" style="edgeStyle=orthogonalEdgeStyle;rounded=0;orthogonalLoop=1;jettySize=auto;html=1;exitX=0;exitY=0.5;exitDx=0;exitDy=0;entryX=1;entryY=0.5;entryDx=0;entryDy=0;endArrow=ERzeroToMany;endFill=0;startArrow=ERone;startFill=0;" edge="1" parent="1" source="lAKjv9YLIrflB9gxmrIk-118" target="lAKjv9YLIrflB9gxmrIk-125">
          <mxGeometry relative="1" as="geometry" />
        </mxCell>
        <mxCell id="lAKjv9YLIrflB9gxmrIk-130" value="&lt;h1 style=&quot;text-align: center;&quot;&gt;&lt;font style=&quot;font-size: 14px;&quot;&gt;TABELA FATO: EMPRESTIMO&lt;/font&gt;&lt;/h1&gt;&lt;h1&gt;&lt;font style=&quot;font-size: 15px;&quot;&gt;Perguntas:&lt;/font&gt;&lt;/h1&gt;&lt;p&gt;- Quantos empréstimos foram feitos no último semestre?&lt;/p&gt;&lt;p&gt;- Qual a Unidade que concede mais empréstimos?&lt;/p&gt;&lt;p&gt;- Em cada unidade, qual instrumento é mais solicitado?&lt;/p&gt;&lt;p&gt;- Qual o período médio dos empréstimos?&lt;/p&gt;&lt;p&gt;- Qual a procentagem de instrumentos devolvidos com avaria?&lt;/p&gt;" style="text;html=1;fillColor=#f9f7ed;spacing=5;spacingTop=-20;whiteSpace=wrap;overflow=hidden;rounded=0;strokeColor=#36393d;" vertex="1" parent="1">
          <mxGeometry x="3096" y="944" width="254" height="287" as="geometry" />
        </mxCell>
        <mxCell id="lAKjv9YLIrflB9gxmrIk-136" value="&lt;h1 style=&quot;text-align: center;&quot;&gt;&lt;font style=&quot;font-size: 14px;&quot;&gt;TABELA FATO: ALUNOS&lt;/font&gt;&lt;/h1&gt;&lt;h1&gt;&lt;font style=&quot;font-size: 15px;&quot;&gt;Perguntas:&lt;/font&gt;&lt;/h1&gt;&lt;p style=&quot;border-color: var(--border-color);&quot;&gt;- Quantos alunos são matriculados por ano?&lt;/p&gt;&lt;p style=&quot;border-color: var(--border-color);&quot;&gt;Qual a média de alunos por turma?&lt;br&gt;&lt;/p&gt;&lt;p style=&quot;border-color: var(--border-color);&quot;&gt;- Qual a procentagem de alunos que desistem do curso?&lt;/p&gt;&lt;p style=&quot;border-color: var(--border-color);&quot;&gt;- Qual o curso que tem maior taxa de retenção dos alunos?&lt;/p&gt;&lt;p style=&quot;border-color: var(--border-color);&quot;&gt;- Qual a Unidade com maior taxa de desistência?&lt;/p&gt;&lt;p style=&quot;border-color: var(--border-color);&quot;&gt;- Quais os intrumentos com maior e menor número de alunos aprendendo?&lt;/p&gt;" style="text;html=1;fillColor=#f9f7ed;spacing=5;spacingTop=-20;whiteSpace=wrap;overflow=hidden;rounded=0;strokeColor=#36393d;" vertex="1" parent="1">
          <mxGeometry x="3096" y="2543" width="254" height="323" as="geometry" />
        </mxCell>
        <mxCell id="lAKjv9YLIrflB9gxmrIk-137" value="&lt;h1 style=&quot;text-align: center;&quot;&gt;&lt;font style=&quot;font-size: 14px;&quot;&gt;TABELA FATO: TURMAS&lt;/font&gt;&lt;/h1&gt;&lt;h1&gt;&lt;font style=&quot;font-size: 15px;&quot;&gt;Perguntas:&lt;/font&gt;&lt;/h1&gt;&lt;p&gt;- Qual a Unidade com o maior número de turmas?&lt;/p&gt;&lt;p&gt;- Qual turma possui a melhor taxa de retensão dos alunos?&lt;/p&gt;&lt;p&gt;- Qual a média de idade dos alunos em cada turma?&lt;/p&gt;&lt;p&gt;- Qual instrumento possui maior número de turmas em cada Unidade?&lt;/p&gt;&lt;p&gt;&lt;br&gt;&lt;/p&gt;&lt;p&gt;&lt;br&gt;&lt;/p&gt;&lt;p&gt;&lt;br&gt;&lt;/p&gt;" style="text;html=1;fillColor=#f9f7ed;spacing=5;spacingTop=-20;whiteSpace=wrap;overflow=hidden;rounded=0;strokeColor=#36393d;" vertex="1" parent="1">
          <mxGeometry x="3096" y="1686" width="254" height="287" as="geometry" />
        </mxCell>
        <mxCell id="lAKjv9YLIrflB9gxmrIk-141" value="&lt;b&gt;&lt;font style=&quot;font-size: 14px;&quot;&gt;Modelo Multimensional&lt;/font&gt;&lt;/b&gt;" style="shape=umlFrame;whiteSpace=wrap;html=1;pointerEvents=0;width=202;height=39;" vertex="1" parent="1">
          <mxGeometry x="2383" y="836" width="1070" height="2814" as="geometry" />
        </mxCell>
      </root>
    </mxGraphModel>
  </diagram>
</mxfile>
